<?xml version="1.0" encoding="UTF-8"?>
<svg enable-background="new 0 0 198.425 198.425" version="1.1" viewBox="0 0 133.9 154.3" xml:space="preserve" xmlns="http://www.w3.org/2000/svg">





<g><g id="Sechseck"><path id="logo-background" d="m0 38.58 66.97-38.58 66.97 38.58v77.15l-66.97 38.58-66.97-38.58z" fill="#fff"/><path id="Krebshintergrund" d="m98.06 34.35c-4.846 0.2479-9.708 1.092-14.37 2.416-1.289 0.8279-0.01616 2.291 1.166 2.115 6.017 1.231 12.46 1.449 18 4.355 2.235 1.607 3.733 4.02 5.096 6.406l0.5293 3.318c-0.353 0.6723-0.7846 1.339-0.6641 2.072 0.2966 0.4773 0.6567 0.6449 1.053 0.6543-1.857 1.24-3.35 3.148-4.842 4.738-0.9452 0.9878-1.893 2.827-2.709 3.469-0.636-2.084-3.32-1.191-4.631-0.3359-2.415 1.198-4.564 3.702-6.428 5.018 0.3788-2.222-2.469-2.48-4.039-2.541-2.792 0.1657-5.722 0.5273-8.277 1.695-0.2431 0.3258-0.3479 0.6631-0.3652 1.006-0.3244-0.4099-0.6905-0.781-1.094-1.113 0.1885-0.0034 0.3794-0.0249 0.5742-0.07813 1.425-1.68 1.199-4.211 1.574-6.285 0.01868-3.38-0.3579-7.041-2.16-9.959-0.2674-0.2032-0.5532-0.2886-0.8477-0.3105 0.05385-0.05041 0.1067-0.1042 0.1582-0.1602 2.157-1.598 1.728-5.058-0.5684-6.307-0.5046-0.3283-1.103-0.5229-1.709-0.4941-0.2073 0.01526-0.4094 0.04901-0.6055 0.09766 0.502-1.42-1.194-2.842-1.857-4.096-1.029-1.845-2.966-2.152-4.912-2.062-2.545 0.1591-3.956 2.821-5.16 4.754-0.2171 0.5691-0.1301 0.9837 0.1094 1.324-0.1417-0.01695-0.285-0.02382-0.4277-0.01758-2.423 0.1784-4.156 2.747-3.393 5.072 0.2343 0.7366 0.7381 1.388 1.371 1.861-1.512 0.215-1.745 2.496-2.229 3.705-1.102 4.097-0.7671 8.496 0.4336 12.52 0.1697 0.157 0.3449 0.2641 0.5234 0.3359-0.2417 0.1574-0.4758 0.3254-0.6914 0.5195-0.1245 0.1767-0.2445 0.3595-0.3672 0.5391-0.8036-1.74-3.255-1.383-4.822-1.92-2.484-0.2648-5.462-1.094-7.697 0.3887-0.6216 0.2926-0.379 1.61-0.5566 1.617-2.708-2.411-5.533-5.551-9.352-5.889-0.8853-0.0949-1.337 1.186-1.596 1.383-2.205-3.066-4.559-6.359-7.775-8.451 0.4869-0.01053 0.8979-0.2386 1.145-0.9141-0.0045-0.6039-0.2968-1.202-0.5566-1.795 0.1174 0.09977 0.2516 0.1928 0.4102 0.2734l0.9238-4.02c-0.2696 0.08659-0.5255 0.2309-0.7598 0.4102 1.836-3.078 3.863-6.407 7.539-7.434 5.665-2.013 11.75-2.402 17.55-3.656 1.786-1.742-1.676-2.201-2.932-2.334-4.523-0.8987-9.094-1.771-13.73-1.697-8.994 0.08774-18.75 4.403-22.5 13.04-1.032 2.974-2.735 6.516-1.098 9.576 1.123 1.879 3.781 3.658 5.762 1.852 0.8358-0.5176 1.508-1.305 2.193-2.064-0.7802 0.9645-1.481 2.04-2.307 2.814-1.773 1.676 0.965 3.278 2.326 4.016 3.812 2.135 7.885 3.736 11.95 5.305-1.273 1.012-1.081 2.601 0.377 3.289 3.318 2.387 7.777 1.32 11.54 1.637-0.2064 1.475 1.219 1.796 2.41 1.631-0.445 0.2052-0.8654 0.4588-1.248 0.7812-0.688 0.5817 0.2039 1.664 0.3809 1.812-2.428-1.766-5.743-2.24-8.701-1.832-1.147 0.1051-1.785 1.443-1.07 2.367-4.323-1.168-8.651-2.562-13.13-2.943-1.668 0.3229-0.8271 2.305 0.1562 2.922 0.889 0.6647 1.43 2.265-0.01953 2.676-1.937 0.2019-1.558 2.366 0.05078 2.758 3.644 1.381 7.678 0.1864 11.31-0.6953 0.7816-0.08966 2.151-1.175 1.799 0.2617 0.4814 1.997 3.226 1.453 4.723 1.057 2.216-0.5037 4.627-2.137 6.316-2.852 0.4285 1.176 1.481 1.203 2.537 0.9004-1.275 0.7462-2.416 1.653-3.121 2.967 0.7359 1.155-1.235-0.0047-1.818 0.3848-1.981 0.3064-4.518 0.2984-5.861 1.994-0.625 0.8533 1.207 1.948-0.5957 1.545-3.756 0.2527-7.74-0.3862-11.33 0.8281-1.539 1.512 1.36 2.189 2.098 3.275 0.572 1.21-1.862 2.176-0.6582 3.439 2.231 1.43 4.969-0.2339 7.109-1.123 1.709-0.7436 3.494-2.092 5.016-2.729 0.341 2.06 2.885 1.678 4.094 0.6504 2.043-1.276 3.848-2.908 5.43-4.719 0.418 0.61 0.8951 0.6773 1.385 0.4863-0.1808 0.1133-0.3705 0.2123-0.5723 0.2949-1.388 0.6429-2.231 2.945-0.957 3.512-2.582 0.221-5.741 0.7585-7.24 3.104-0.5437 0.8946 1.285 1.746-0.3906 1.697-3.185 0.9702-6.691 1.468-9.512 3.299-1.08 1.686 1.281 1.909 2.236 2.531 0.8326 0.7799-1.069 1.849-0.05859 2.756 2.05 1.381 4.4-0.7586 6-1.951 1.527-1.103 3.006-3.047 4.361-3.838 1.107 1.833 3.372 0.2038 4.299-0.9805 1.358-1.473 2.438-3.184 3.309-4.982 1.628 0.3176 2.565-1.694 3.434-2.775 0.1114-0.3766 0.1808-0.7733 0.2207-1.178 0.1486 0.4785 0.309 0.9528 0.4785 1.424-0.4177-0.03436-0.7643-5.29e-4 -1.061 0.373-0.8815 2.169-4.222 2.946-3.994 5.605 1.169 0.8411-0.04064 0.6182-0.7715 1.139-1.496 1.027-3.915 1.852-4.131 3.895 0.8785 1.124 0.1984 1.288-0.9375 1.834-2.327 1.405-5.028 2.473-6.896 4.445-0.1443 1.681 2.123 1.085 2.84 1.977-0.3856 1.207 0.3605 3.146 1.898 2.328 2.829-1.719 4.57-4.835 6.246-7.514 1.328 1.554 3.194-0.1872 3.697-1.59 0.8592-1.493 1.454-3.355 1.91-4.865 1.802 0.8066 3.144-1.625 3.232-3.164 0.09796 0.173 0.1928 0.3484 0.2949 0.5195-0.5023 1.975-1.883 4.488-0.6055 6.436 0.4178 0.7561 2.14-0.1048 1.338 0.9902-0.3978 1.512-1.636 3.7-0.1855 4.955 0.8319 0.3123 1.794-0.505 0.9121 0.8496-0.5299 1.409-1.485 4.271 0.7246 4.672 0.4973 0.2389-0.5852 1.688-0.5625 2.453-0.5009 1.216-0.1851 3.572 1.627 2.941 2.345-0.8264 4.261-3.326 6.893-3.027 2.351 0.7973 4.194 3.262 6.777 3.182 1.823-1.166 0.4679-3.722-0.1152-5.277-0.3776-0.5841 1.512 0.1435 1.529-0.9473 0.371-1.623-0.6054-3.56-0.877-4.844 1.804 0.7182 2.215-1.663 1.629-2.865-0.1973-0.8842-0.5602-1.82-0.8652-2.602 2.028 0.593 2.344-2.052 1.904-3.418-0.07432-0.801-0.414-1.583-0.6602-2.354 0.1763 0.3417 0.4201 0.6626 0.748 0.9531 0.4532 0.8782 1.749 0.7248 2.15 0.8184 0.87 2.544 1.636 5.856 4.354 6.984 1.245-1.366 1.63-0.0603 2.385 1.135 1.588 2.114 3.124 4.805 5.734 5.715 1.448 0.0316 1.218-1.521 1.145-2.451 0.8394-0.9604 3.58-0.2805 2.928-2.172-2.456-2.104-5.722-3.562-8.498-5.1 1.758-1.058-0.1724-2.951-1.32-3.592-1.167-0.9926-2.848-1.41-4.094-2.029 1.887-0.4065 0.8072-2.763-0.418-3.33-1.45-0.6278-1.855-2.303-3.006-3.197-0.1616 0.01999-0.3228 0.0386-0.4844 0.05859 0.1229-0.3631 0.2361-0.729 0.3477-1.096 0.1013 0.6649 0.3747 1.286 0.9219 1.809 0.7606 0.7179 1.509 2.124 2.75 1.705 1.421 2.646 3.039 5.65 5.875 6.955 0.7963 0.2439 1.635-0.2831 1.91-1.037 2.298 2.433 4.789 4.971 7.918 6.279 1.145 0.6631 3.215-0.1678 2.396-1.67-1.06-1.315 0.7592-2.017 1.779-2.188 1.534-0.7939 0.1097-2.452-1.107-2.555-2.823-1.226-6.337-1.913-8.902-2.816 1.47-1.428-0.689-3.004-2.027-3.359-1.46-0.555-3.049-1.086-4.594-1.09 1.658-1.07-0.2246-2.946-1.334-3.58-0.1256-0.06043-0.246-0.1282-0.3633-0.1992 0.4249 0.1599 0.87 0.1554 1.342-0.1465 0.6251-0.25 1.702 1.652 2.562 2.133 1.748 1.292 3.723 3.487 6.105 2.92 0.9513-0.1444 0.6838-2.105 1.613-1.061 3.323 1.85 6.894 4.513 10.9 3.881 1.818-0.7194 0.2528-2.505-0.291-3.467 0.3758-1.491 3.349-1.456 2.758-3.348-2.392-1.376-5.443-0.7655-8.119-1.096-1.469-0.1091-3.418 0.02134-4.59-0.2227 1.12-1.795-1.467-2.774-2.85-2.926-1.867-0.4154-3.923-0.3994-5.67 0.2305 1.385-0.7115 0.392-2.536-0.7227-3.064-0.4856-0.3219-0.9831-0.6488-1.49-0.9629 0.142 0.05759 0.3027 0.1224 0.4375 0.1797 0.9912 0.4774 2.226-0.2746 2.363-1.119 3.16 1.787 6.798 4.308 10.56 2.918 0.192-1.764 0.429-2.101 2.182-1.299 3.882 0.8089 8.311 2.582 12.03 0.3398 1.478-1.126-0.2598-2.476-1.4-2.869-0.8985-1.959 2.985-2.955 1.346-4.795-2.093-0.7015-4.373 0.485-6.488 0.7363-2.289 0.4657-4.927 1.349-6.937 1.789 0.7421-2.048-2.056-2.637-3.533-2.416-2.075 0.09146-4.227 0.58-5.963 1.695 0.6879-0.7858-0.09098-2.171-1.221-2.281-0.1187-0.04159-0.2398-0.07601-0.3594-0.1152 0.6522 0.05052 1.273-0.01702 1.816-0.3594 0.182-1.808 1.877-0.9987 3.176-1.041 3.258-0.04456 7.085-0.03988 9.592-2.416 0.7231-0.8095 0.3551-2.009-0.2383-2.734 4.907-1.997 10.22-3.562 14.36-6.992 1.871-1.521-0.9628-3.018-1.74-4.346-0.2718-0.3019-0.5396-0.643-0.8184-0.9863 0.4768 0.569 0.9458 1.147 1.504 1.523 1.288 1.867 4.085 1.957 5.51 0.1992 2.166-1.645 2.172-4.561 1.396-6.922-1.346-5.27-4.474-10.15-9.248-12.92-4.712-3.017-10.5-4.094-16.02-4.133zm-17.7 39.71c0.306 0.1761 0.6487 0.2981 1.018 0.3789-0.3288 0.1406-0.5479 0.3806-0.6914 0.6797-0.09507-0.3568-0.2039-0.7095-0.3262-1.059zm-27 0.08008c-0.08769 0.2554-0.1687 0.5122-0.2422 0.7715-0.1425-0.2282-0.333-0.4094-0.5664-0.5332 0.2723-0.07154 0.5423-0.1496 0.8086-0.2383zm-0.6445 5.545c0.03739 0.4762 0.07782 0.954 0.123 1.432-0.2692-0.2578-0.6419-0.3849-1.035-0.2578 0.3651-0.3435 0.6755-0.7386 0.9121-1.174zm28.37 0.01172c0.2944 0.5322 0.7242 0.9699 1.232 1.342-0.3566-0.115-0.716-0.218-1.082-0.2871l-0.2773 0.2383c0.04431-0.4313 0.08772-0.8624 0.127-1.293zm-0.7988 6.303c0.07909 0.2611 0.187 0.5099 0.3242 0.748-0.165 0.05272-0.3291 0.1055-0.4941 0.1582 0.05715-0.302 0.1177-0.6032 0.1699-0.9062zm-26.79 0.05469c0.06446 0.3699 0.1303 0.7394 0.2031 1.107-0.1245-0.05502-0.2574-0.08673-0.416-0.07422-0.156 0.04361-0.3024 0.103-0.4453 0.168 0.2951-0.3634 0.5135-0.7682 0.6582-1.201zm-7.984 0.6816c0.01848 0.0048 0.05291 0.02629 0.1113 0.07813-0.07222 0.04706-0.1668-0.09257-0.1113-0.07813z" fill="#fff" stroke-width=".306"/><path d="m28.94 28.54s18.39-4.905 36.06 9.633c1.059 0.8709 3.168 1.095 4.111 0.1008 13.85-14.6 35.62-9.99 35.62-9.99l23.86 13.39v70.96l-26.41 15.38s-19.78-0.6846-33.22-10.45c-1.061-0.7711-2.855-0.7232-3.936 0.0212-14.3 9.852-33.66 10.59-33.66 10.59l-26.01-15.54v-70.96zm38.03-28.54-66.97 38.58v77.15l66.97 38.58 66.97-38.58v-77.15z" fill="#008080" stroke-width="1.072"/><path d="m28.92 27.2c-14.24 1.5 38.36-21.44 38.36-21.44l38.93 22.57s-14.89-6.33-37.24 9.168c-2.134 1.48-4.231 0-4.231 0s-17.68-12.21-35.83-10.3z" fill="#008080" opacity=".382" stroke="#008080" stroke-width=".2793px"/><g fill="#fff"><g stroke-width="1.441"><path d="m63.53 27.51c-0.2695-0.1746-0.467-0.2336-0.7005-0.2336-0.4137 0-0.6399 0.2597-0.6399 0.8201v0.2854h1.692v0.6573h-1.692v3.698h-0.7264v-3.698h-1.227v-0.6573h1.227v-0.2665c0-1.055 0.5102-1.496 1.34-1.496 0.3963 0 0.6644 0.1024 0.9066 0.2506z"/><path d="m67.02 28.31c1.332 0 2.142 1.046 2.142 2.247 0 1.201-0.81 2.248-2.142 2.248-1.332 0-2.145-1.048-2.145-2.248 0-1.201 0.8129-2.247 2.145-2.247m0 3.838c0.8893 0 1.399-0.7524 1.399-1.591 0-0.8374-0.5104-1.59-1.399-1.59-0.8893 0-1.399 0.7524-1.399 1.59 0 0.8388 0.5102 1.591 1.399 1.591"/><path d="m73.37 29.76c-0.0593-0.5016-0.3186-0.7956-0.8389-0.7956-0.7596 0-1.477 0.7177-1.477 2.197v1.572h-0.7236v-4.356h0.7236v0.8028c0.3371-0.5275 0.8835-0.8734 1.61-0.8734 0.8648 0 1.382 0.5203 1.433 1.453z"/></g><polygon transform="matrix(1.441 0 0 1.441 -76.06 -44.33)" points="96.05 47.24 96.2 47.24 96.33 47.24 96.33 40.77 95.52 40.77 95.52 40.87 95.52 47.24"/><path d="m66.24 24.64c0.08239 0 0.186-0.0737 0.186-0.1516v-10.93c0-0.07899-0.1036-0.1455-0.186-0.1455h-3.642c-0.07899 0-0.1081 0.03024-0.1081 0.0737v0.947c0 0.07899 0.02646 0.147 0.1081 0.147h2.476c0.08239 0 0.186 0.0635 0.186 0.1425v8.6c0 0.07899-0.1039 0.1497-0.186 0.1497h-2.476c-0.07899 0-0.1081 0.02646-0.1081 0.06765v0.9481c0 0.07786 0.02646 0.1516 0.1081 0.1516z" stroke-width="1.441"/><polygon transform="matrix(1.441 0 0 1.441 -76.06 -44.33)" points="100.7 40.77 99.87 40.77 99.87 40.87 99.87 47.24 100.6 47.24 100.7 47.24"/><g stroke-width="1.441"><path d="m68.91 24.63v-1.167c1.604 0 2.723-1.993 2.723-4.445 0-2.45-1.117-4.445-2.723-4.445v-1.165c2.188 0 3.887 2.516 3.887 5.609 0 3.094-1.699 5.612-3.887 5.612"/><path d="m56.8 21.04v2.126c0 0.872 0.5578 1.466 1.438 1.466h1.805c0.04192 0 0.1096-0.07332 0.1096-0.1512v-0.8763c0-0.07786-0.1009-0.1383-0.183-0.1383h-1.528c-0.3776 0-0.4756-0.1614-0.4756-0.5924v-2.515c0-0.8778-0.3575-1.202-0.7942-1.362 0.4367-0.1568 0.7942-0.4814 0.7942-1.359v-2.514c0-0.4237 0.08364-0.5506 0.4756-0.5506h1.601c0.04191 0 0.1095-0.06803 0.1095-0.147v-0.8748c0-0.07899-0.1009-0.1455-0.183-0.1455h-1.731c-0.8806 0-1.438 0.5721-1.438 1.425v2.364s-0.03061 0.4381-0.05065 0.5866c-0.05624 0.3949-0.5376 0.7322-0.8388 0.7279h-0.4569c-0.08073 0-0.1124 0.06198-0.1124 0.1425v0.8749c0 0.07899 0.03175 0.1497 0.1124 0.1497h0.4165c0.3834-0.0076 0.8648 0.3141 0.9008 0.7956 0.0102 0.1383 0.0291 0.5678 0.0291 0.5678"/><path d="m62.6 13.41h-0.872c-0.08224 0-0.1109 0.06614-0.1109 0.1455v1.022h1.166v-1.167z"/><path d="m61.62 23.61v0.8749c0 0.07937 0.02797 0.1527 0.1096 0.1527h1.057v-1.167h-1.166z"/><path d="m68.86 13.41h-0.872c-0.0824 0-0.1066 0.06614-0.1066 0.1455v1.022h1.168v-1.167z"/><path d="m67.88 23.61v0.8749c0 0.07937 0.0265 0.1527 0.1066 0.1527h1.063v-1.167h-1.169z"/><path d="m75.18 21.04v2.126c0 0.872 0.5492 1.466 1.43 1.466h1.805c0.0378 0 0.1179-0.07332 0.1179-0.1512v-0.8763c0-0.07786-0.1096-0.1383-0.192-0.1383h-1.529c-0.3776 0-0.4668-0.1614-0.4668-0.5924v-2.515c0-0.2808-0.0824-0.5376-0.147-0.6832h-1.956c0.5376 0.1455 0.7653 0.3371 0.8777 0.8042 0.0552 0.2336 0.0605 0.5607 0.0605 0.5607"/><path d="m75.09 17.78c-0.1122 0.382-0.3662 0.5808-0.8158 0.7279h1.838c0.1122-0.2914 0.2249-0.4857 0.2249-0.8734v-2.514c0-0.4238 0.0763-0.5506 0.4668-0.5506h1.603c0.0382 0 0.1179-0.06614 0.1179-0.1455v-0.8763c0-0.07786-0.1096-0.1444-0.192-0.1444h-1.731c-0.8806 0-1.43 0.5707-1.43 1.425v2.364s-0.0265 0.3949-0.0824 0.5866"/><path d="m75.38 19.1c0.2952 0.1066 0.6169 0.2812 0.8158 0.5736h2.142c0.0824 0 0.192-0.06917 0.192-0.1485v-0.8749c0-0.08088-0.1096-0.1444-0.192-0.1444h-2.221c-0.1455 0.2925-0.4946 0.5044-0.7365 0.5938"/><path d="m73.82 18.51c-0.079 0-0.1009 0.0635-0.1009 0.1425v0.8749c0 0.07937 0.0227 0.1497 0.1009 0.1497h2.375c-0.1323-0.294-0.4554-0.4929-0.6904-0.5837 0.2419-0.08957 0.4642-0.2925 0.6111-0.5837h-1.838z"/></g></g><path d="m80.94 80.69s8.796 3.04 7.714 5.877c-0.3949 1.036-1.558 0.0639-1.558 0.0639s9.196-1.135 9.651 2.142c0.0646 0.4663-0.8891 1.097-0.8891 1.097s8.704-0.3854 12.83 0.7637c0.5781 0.161 1.594 0.8371 1.594 0.8371s-4.015 1.094-4.13 2.742c-0.0729 1.034 2.325 2.066 2.325 2.066s-1.823 1.3-2.875 1.305c-3.877 0.0189-10.63-4.709-10.63-4.709s-0.0643 1.481-0.628 1.672c-3.234 1.099-8.7-5.414-8.7-5.414s0.0945 0.9843-0.4292 1.033c-2.657 0.2457-5.107-4.784-5.107-4.784z" fill="none" stroke="#008080" stroke-miterlimit="4.6" stroke-width="1.2"/><g stroke="#008080" stroke-miterlimit="4.6"><path d="m22 54.81c-3.071-0.0428-4.563 5.372-6.965 5.807 0 0 1.475 1.705 2.396 2.33 4.043 2.743 13.38 5.984 13.38 5.984s-1.275 1.503-0.8984 2.199c2.162 3.996 13.38 2.586 13.38 2.586s-2.071 0.4243-1.604 0.9453c1.098 1.224 3.269 0.6588 5.721 0.2852 2.839-0.4326 5.914-0.7949 5.914-0.7949l3.277-5.924s-10.04-3.566-12.98-0.7969c-0.581 0.5472 0.3125 2.373 0.3125 2.373s-7.352-8.5-11.15-6.482c-0.5528 0.294-0.123 1.875-0.123 1.875s-3.983-6.606-8.248-9.357c-0.9076-0.7194-1.701-1.019-2.41-1.029z" fill="none"/><path id="Greifer-links" class="Krebskoerper Greifer" d="m24.54 52.13c2.922 5.445 20.51 1.851 28.97-7.528 2.647-3.03-6.941 2.716-10.63 2.7-10.08 0.6286-13.9 0.9745-17.53 2.462-0.3776 0.1548-1.49 1.097-0.8088 2.366z" fill="#fff" stroke-width="1.2"/><path class="Krebskoerper" d="m29.99 43.77c6.003-4.67 29.12-5.144 21.64-6.553-6.91-1.303-12.61-2.71-17.37-2.543h-8e-5c-12.82 0.4522-22.77 7.104-24.28 19.61-0.2858 2.361 1.922 5.011 4.146 5.301 2.638 0.3435 4.101-3.576 6.361-4.818 1.637-0.8996 3.528 1.454 4.93 0.4681 1.402-0.9861-1.897-3.166-0.07573-5.465 1.821-2.299 2.9-4.642 4.64-5.995z" fill="#fff" stroke-width="1.2"/></g><g fill="none" stroke="#008080" stroke-miterlimit="4.6" stroke-width="1.2"><path d="m67.11 72.88s4.365-0.6985 4.239-6.798c-0.0416-2.027 5.512 2.954 6.056 0.9997 2.894-10.38-1.367-16.24-1.367-16.24"/><path d="m67.27 72.85s-4.365-0.6985-4.239-6.798c0.04158-2.027-5.512 2.954-6.056 0.9997-2.894-10.38 1.277-16.24 1.277-16.24"/><ellipse cx="60.74" cy="47.9" rx="3.492" ry="3.659" stroke-dashoffset="2.572"/><ellipse cx="73.59" cy="47.9" rx="3.492" ry="3.659" stroke-dashoffset="2.572"/><g><path d="m60.57 43.93s1.84-4.122 4.36-5.697c1.586-1.116 2.854-0.6398 4.113 0.147 2.247 1.396 4.13 5.687 4.13 5.687"/><path d="m58.12 97.26s-2.678 5.355-1.06 7.134c0.4113 0.4523 1.832-0.0964 1.832-0.0964s-2.111 4.119-0.8676 5.495c0.3884 0.4298 1.735-0.0964 1.735-0.0964s-2.165 4.275-0.8676 5.688c0.3268 0.3556 1.446-0.0964 1.446-0.0964s-2.179 4.582-0.5105 5.845"/><path d="m76.12 97.27s2.678 5.355 1.06 7.134c-0.4113 0.4524-1.832-0.0964-1.832-0.0964s2.111 4.119 0.8676 5.495c-0.3884 0.4298-1.735-0.0964-1.735-0.0964s2.165 4.275 0.8676 5.688c-0.3269 0.3557-1.446-0.0964-1.446-0.0964s2.09 4.046 0.8676 5.398c-6.645 5.301 1.245 17.56-7.616 23.33"/><path d="m80.01 86.44s7.949 5.099 6.256 7.273c-0.6183 0.7936-1.424-0.3186-1.424-0.3186s8.593 1.231 8.177 4.149c-0.0593 0.4152-1.08 0.7277-1.08 0.7277s7.959 1.755 11.4 3.729c0.4815 0.2767 1.228 1.1 1.228 1.1s-3.902-0.0264-4.423 1.361c-0.3269 0.8692 1.579 2.328 1.579 2.328s-1.975 0.6782-2.927 0.4302c-3.506-0.9134-8.417-6.586-8.417-6.586s-0.4318 1.254-0.9894 1.283c-3.199 0.1671-6.492-6.726-6.492-6.726s-0.1629 0.8666-0.6484 0.7826c-2.462-0.426-3.213-4.747-3.213-4.747z"/><path d="m78.77 91.86s6.424 6.094 4.491 7.664c-0.706 0.5733-1.189-0.5702-1.189-0.5702s7.319 2.831 6.359 5.317c-0.1368 0.3538-1.099 0.4214-1.099 0.4214s6.654 3.164 9.281 5.603c0.3678 0.3413 0.8583 1.218 0.8583 1.218s-3.432-0.815-4.173 0.2997c-0.4646 0.6992 0.9171 2.372 0.9171 2.372s-1.877 0.1958-2.665-0.2162c-2.903-1.518-6.075-7.512-6.075-7.512s-0.6354 1.017-1.132 0.9292c-2.852-0.5034-4.351-7.245-4.351-7.245s-0.3198 0.7303-0.7303 0.5576c-2.082-0.8758-2.688-3.648-2.688-3.648z"/><path d="m80.56 74.58s10.41-0.1587 10.11 3.164c-0.1088 1.213-1.629 0.5321-1.629 0.5321s9.385-3.943 10.84-0.6132c0.2075 0.4738-0.6128 1.425-0.6128 1.425s9.088-3.003 13.8-3.019c0.6592-1e-3 1.935 0.4097 1.935 0.4097s-3.919 2.354-3.55 4.131c0.2313 1.115 3.074 1.491 3.074 1.491s-1.539 1.919-2.651 2.238c-4.094 1.175-12.65-1.808-12.65-1.808s0.3738 1.585-0.1655 1.955c-3.092 2.126-10.81-3.13-10.81-3.13s0.3938 1.012-0.1459 1.22c-2.736 1.052-7.031-2.785-7.031-2.785z"/><path d="m52.89 80.75s-8.796 3.04-7.714 5.877c0.3949 1.036 1.558 0.0639 1.558 0.0639s-9.196-1.135-9.651 2.142c-0.06463 0.4663 0.8891 1.097 0.8891 1.097s-8.704-0.3854-12.83 0.7638c-0.5781 0.161-1.594 0.8371-1.594 0.8371s4.015 1.094 4.13 2.742c0.07272 1.034-2.325 2.066-2.325 2.066s1.823 1.3 2.875 1.305c3.877 0.0189 10.63-4.709 10.63-4.709s0.06421 1.481 0.628 1.672c3.234 1.099 8.7-5.414 8.7-5.414s-0.09479 0.9843 0.4292 1.033c2.657 0.2457 5.107-4.784 5.107-4.784z"/><path d="m53.81 86.5s-7.949 5.099-6.256 7.273c0.6183 0.7936 1.424-0.3186 1.424-0.3186s-8.593 1.231-8.177 4.149c0.0593 0.4152 1.08 0.7277 1.08 0.7277s-7.959 1.755-11.4 3.729c-0.4815 0.2767-1.228 1.1-1.228 1.1s3.902-0.0264 4.423 1.361c0.3268 0.8692-1.579 2.328-1.579 2.328s1.975 0.6782 2.927 0.4301c3.506-0.9134 8.417-6.586 8.417-6.586s0.4318 1.254 0.9894 1.283c3.199 0.1671 6.492-6.726 6.492-6.726s0.1628 0.8666 0.6484 0.7826c2.462-0.426 3.213-4.747 3.213-4.747z"/><path d="m55.06 91.92s-6.424 6.094-4.491 7.664c0.706 0.5733 1.189-0.5701 1.189-0.5701s-7.319 2.831-6.359 5.317c0.1366 0.3538 1.099 0.4214 1.099 0.4214s-6.654 3.164-9.281 5.603c-0.3679 0.3417-0.8584 1.218-0.8584 1.218s3.432-0.815 4.173 0.2997c0.4646 0.6992-0.9172 2.372-0.9172 2.372s1.877 0.1958 2.666-0.2162c2.903-1.518 6.075-7.512 6.075-7.512s0.6354 1.017 1.132 0.9292c2.852-0.5034 4.351-7.245 4.351-7.245s0.3196 0.7303 0.7303 0.5576c2.082-0.8758 2.688-3.648 2.688-3.648z"/><path d="m53.26 74.63s-10.41-0.1587-10.11 3.164c0.1086 1.213 1.629 0.5321 1.629 0.5321s-9.385-3.943-10.84-0.6132c-0.2074 0.4737 0.6128 1.425 0.6128 1.425s-9.088-3.003-13.8-3.019c-0.6593-1e-3 -1.935 0.4097-1.935 0.4097s3.919 2.354 3.55 4.131c-0.2315 1.115-3.074 1.491-3.074 1.491s1.54 1.919 2.651 2.238c4.094 1.175 12.65-1.808 12.65-1.808s-0.3737 1.585 0.1653 1.955c3.092 2.126 10.81-3.13 10.81-3.13s-0.3938 1.012 0.1458 1.22c2.736 1.052 7.031-2.785 7.031-2.785z"/></g></g><g transform="translate(0 2.632)" fill="#fff" stroke-width=".2793" aria-label="Cottbus"><path d="m49.95 134q-0.845 0-1.563-0.2494-0.7127-0.2494-1.227-0.7432t-0.7992-1.232q-0.28-0.7381-0.28-1.705 0-0.901 0.2698-1.634 0.2698-0.733 0.7839-1.257 0.4938-0.504 1.222-0.7788 0.733-0.2749 1.598-0.2749 0.4785 0 0.8603 0.056 0.3869 0.0509 0.7127 0.1374 0.3411 0.0967 0.616 0.2189 0.28 0.1171 0.4887 0.2189v1.838h-0.224q-0.1425-0.1222-0.3614-0.2902-0.2138-0.168-0.4887-0.3309-0.28-0.1629-0.6058-0.2749t-0.6974-0.112q-0.4123 0-0.7839 0.1324-0.3716 0.1273-0.6872 0.4276-0.3003 0.2902-0.4887 0.7687-0.1833 0.4785-0.1833 1.161 0 0.7127 0.1985 1.191 0.2036 0.4785 0.5091 0.7534 0.3105 0.28 0.6923 0.4022 0.3818 0.1171 0.7534 0.1171 0.3563 0 0.7025-0.1069 0.3512-0.1069 0.6465-0.2902 0.2494-0.1476 0.4632-0.3156 0.2138-0.168 0.3512-0.2902h0.2036v1.812q-0.2851 0.1273-0.5447 0.2392-0.2596 0.112-0.5447 0.1934-0.3716 0.1069-0.6974 0.1629t-0.8959 0.056z"/><path d="m59.82 131q0 1.41-0.8247 2.225-0.8196 0.8094-2.306 0.8094t-2.311-0.8094q-0.8196-0.8145-0.8196-2.225 0-1.42 0.8247-2.23 0.8298-0.8094 2.306-0.8094 1.497 0 2.311 0.8145 0.8196 0.8145 0.8196 2.225zm-2.255 1.39q0.1782-0.2189 0.2647-0.5243 0.09163-0.3105 0.09163-0.8552 0-0.504-0.09163-0.845-0.09163-0.3411-0.2545-0.5447-0.1629-0.2087-0.392-0.2952-0.2291-0.0865-0.4938-0.0865-0.2647 0-0.4734 0.0713-0.2036 0.0713-0.392 0.2851-0.168 0.1985-0.2698 0.5447-0.09672 0.3462-0.09672 0.8705 0 0.4683 0.08654 0.8145 0.08654 0.3411 0.2545 0.5498 0.1629 0.1985 0.3869 0.2902 0.2291 0.0916 0.5192 0.0916 0.2494 0 0.4734-0.0814 0.2291-0.0865 0.3869-0.2851z"/><path d="m64.79 133.8q-0.2953 0.0764-0.6261 0.1171-0.3309 0.0458-0.8094 0.0458-1.069 0-1.593-0.4327-0.5192-0.4327-0.5192-1.481v-2.673h-0.7534v-1.242h0.7534v-1.634h1.833v1.634h1.716v1.242h-1.716v2.026q0 0.3003 0.0051 0.5243t0.08145 0.4022q0.07127 0.1782 0.2494 0.2851 0.1833 0.1018 0.5294 0.1018 0.1425 0 0.3716-0.0611 0.2342-0.0611 0.3258-0.112h0.1527z"/><path d="m69.54 133.8q-0.2952 0.0764-0.6261 0.1171-0.3309 0.0458-0.8094 0.0458-1.069 0-1.593-0.4327-0.5192-0.4327-0.5192-1.481v-2.673h-0.7534v-1.242h0.7534v-1.634h1.833v1.634h1.716v1.242h-1.716v2.026q0 0.3003 0.0051 0.5243t0.08145 0.4022q0.07127 0.1782 0.2494 0.2851 0.1833 0.1018 0.5294 0.1018 0.1425 0 0.3716-0.0611 0.2342-0.0611 0.3258-0.112h0.1527z"/><path d="m76.59 130.9q0 1.349-0.7483 2.199-0.7432 0.8501-1.858 0.8501-0.4785 0-0.8399-0.1018t-0.6872-0.2952l-0.07636 0.2851h-1.756v-7.921h1.833v2.8q0.4225-0.336 0.8603-0.5447 0.4429-0.2087 1.018-0.2087 1.084 0 1.67 0.7839 0.5854 0.7788 0.5854 2.153zm-1.889 0.0356q0-0.7636-0.2596-1.176-0.2596-0.4123-0.9265-0.4123-0.2596 0-0.5345 0.0814-0.2749 0.0764-0.5243 0.224v2.871q0.1985 0.0713 0.3767 0.0967 0.1782 0.0255 0.4276 0.0255 0.7279 0 1.084-0.4276 0.3563-0.4276 0.3563-1.283z"/><path d="m83.61 133.9h-1.833v-0.6312q-0.5091 0.3869-0.9316 0.5905-0.4225 0.1985-1.008 0.1985-0.9468 0-1.461-0.5447-0.5091-0.5447-0.5091-1.609v-3.721h1.843v2.835q0 0.4327 0.02545 0.7229 0.03054 0.2851 0.1324 0.4734 0.09672 0.1884 0.2902 0.2749 0.1985 0.0865 0.5498 0.0865 0.2342 0 0.5192-0.0865 0.2851-0.0865 0.5498-0.2545v-4.052h1.833z"/><path d="m90.32 132.1q0 0.8858-0.7941 1.43-0.7941 0.5396-2.174 0.5396-0.7636 0-1.385-0.1425-0.621-0.1425-0.9977-0.3156v-1.507h0.168q0.1374 0.0967 0.3156 0.2138 0.1833 0.112 0.5141 0.2444 0.2851 0.1171 0.6465 0.2036 0.3614 0.0814 0.7738 0.0814 0.5396 0 0.7992-0.1171 0.2596-0.1222 0.2596-0.3563 0-0.2087-0.1527-0.3003-0.1527-0.0967-0.5803-0.1833-0.2036-0.0458-0.5549-0.0967-0.3462-0.056-0.6312-0.1324-0.7788-0.2036-1.156-0.6312-0.3767-0.4327-0.3767-1.074 0-0.8247 0.7788-1.369 0.7839-0.5498 2.138-0.5498 0.6414 0 1.227 0.1324 0.5905 0.1273 0.9214 0.2749v1.446h-0.1578q-0.4072-0.28-0.9316-0.453-0.5192-0.1782-1.054-0.1782-0.4429 0-0.7483 0.1222-0.3003 0.1222-0.3003 0.3462 0 0.2036 0.1374 0.3105t0.6465 0.2138q0.28 0.056 0.6007 0.112 0.3258 0.0509 0.6516 0.1324 0.7229 0.1884 1.069 0.5956 0.3462 0.4022 0.3462 1.008z"/></g><path d="m0 38.58 66.97-38.58 66.97 38.58v77.15l-66.97 38.58-66.97-38.58z" opacity="0" stroke-width="1px"/><g transform="matrix(-1 0 0 1 133.9 -.003688)" stroke="#008080" stroke-miterlimit="4.6"><path d="m22 54.81c-3.071-0.0428-4.563 5.372-6.965 5.807 0 0 1.475 1.705 2.396 2.33 4.043 2.743 13.38 5.984 13.38 5.984s-1.275 1.503-0.8984 2.199c2.162 3.996 13.38 2.586 13.38 2.586s-2.071 0.4243-1.604 0.9453c1.098 1.224 3.269 0.6588 5.721 0.2852 2.839-0.4326 5.914-0.7949 5.914-0.7949l3.277-5.924s-10.04-3.566-12.98-0.7969c-0.581 0.5472 0.3125 2.373 0.3125 2.373s-7.352-8.5-11.15-6.482c-0.5528 0.294-0.123 1.875-0.123 1.875s-3.983-6.606-8.248-9.357c-0.9076-0.7194-1.701-1.019-2.41-1.029z" fill="none"/><path id="Greifer-rechts" class="Krebskoerper Greifer" d="m24.54 52.13c2.922 5.445 20.51 1.851 28.97-7.528 2.647-3.03-6.941 2.716-10.63 2.7-10.08 0.6286-13.9 0.9745-17.53 2.462-0.3776 0.1548-1.49 1.097-0.8088 2.366z" fill="#fff" stroke-width="1.2"/><path class="Krebskoerper" d="m29.99 43.77c6.003-4.67 29.12-5.144 21.64-6.553-6.91-1.303-12.61-2.71-17.37-2.543h-8e-5c-12.82 0.4522-22.77 7.104-24.28 19.61-0.2858 2.361 1.922 5.011 4.146 5.301 2.638 0.3435 4.101-3.576 6.361-4.818 1.637-0.8996 3.528 1.454 4.93 0.4681 1.402-0.9861-1.897-3.166-0.07573-5.465 1.821-2.299 2.9-4.642 4.64-5.995z" fill="#fff" stroke-width="1.2"/></g></g></g></svg>
