<svg xmlns="http://www.w3.org/2000/svg" viewBox="0 0 198.425 198.425" height="198.425" width="198.425"><path d="M61.602 49.98s18.39-4.905 36.062 9.632c1.059.871 3.168 1.096 4.111.101 13.852-14.596 35.615-9.99 35.615-9.99l23.858 13.39v70.96l-26.408 15.381s-19.778-.684-33.222-10.451c-1.061-.771-2.855-.724-3.936.02-14.298 9.853-33.657 10.59-33.657 10.59l-26.007-15.54v-70.96zm38.03-28.54L32.66 60.016v77.154l66.973 38.577 66.973-38.577V60.016z" fill="teal"/><path d="M61.58 48.638C47.339 50.138 99.946 27.2 99.946 27.2l38.928 22.566s-14.895-6.33-37.236 9.168c-2.134 1.48-4.231 0-4.231 0S79.727 46.727 61.58 48.638z" opacity=".382" fill="teal" stroke="teal" stroke-width=".279"/><path d="M96.185 48.95c-.27-.175-.467-.233-.7-.233-.414 0-.64.26-.64.82v.285h1.692v.657h-1.692v3.699h-.726v-3.699h-1.227v-.657h1.227v-.267c0-1.055.51-1.496 1.34-1.496.396 0 .664.103.907.251zM99.68 49.753c1.33 0 2.14 1.046 2.14 2.247 0 1.2-.81 2.248-2.14 2.248-1.333 0-2.146-1.048-2.146-2.248 0-1.2.813-2.247 2.145-2.247m0 3.838c.89 0 1.4-.752 1.4-1.591 0-.838-.51-1.59-1.4-1.59-.89 0-1.4.752-1.4 1.59 0 .839.51 1.591 1.4 1.591M106.032 51.204c-.059-.501-.318-.795-.839-.795-.76 0-1.477.717-1.477 2.196v1.573h-.723v-4.356h.723v.803a1.842 1.842 0 0 1 1.61-.874c.865 0 1.382.52 1.433 1.453zM95.044 45.2h.397v-9.332h-1.166V45.2z" fill="#fff"/><path d="M98.899 46.075c.082 0 .186-.074.186-.151V34.993c0-.08-.104-.146-.186-.146h-3.642c-.08 0-.108.03-.108.074v.947c0 .079.026.147.108.147h2.476c.082 0 .186.064.186.143v8.6c0 .079-.104.15-.186.15h-2.476c-.08 0-.108.026-.108.067v.949c0 .077.026.15.108.15zM101.712 35.868h-1.169V45.2h1.17z" fill="#fff"/><path d="M101.565 46.07v-1.168c1.605 0 2.723-1.993 2.723-4.445 0-2.45-1.117-4.445-2.723-4.445v-1.164c2.188 0 3.887 2.516 3.887 5.609 0 3.094-1.699 5.612-3.887 5.612M89.464 42.482v2.126c0 .872.558 1.466 1.439 1.466H92.707c.042 0 .11-.074.11-.151v-.877c0-.078-.101-.138-.183-.138h-1.528c-.378 0-.476-.162-.476-.592V41.8c0-.877-.357-1.202-.794-1.362.437-.156.794-.481.794-1.359v-2.513c0-.424.084-.55.476-.55h1.601c.042 0 .11-.069.11-.148v-.875c0-.079-.101-.145-.183-.145H90.903c-.88 0-1.439.572-1.439 1.425v2.364s-.03.438-.05.586c-.057.395-.538.733-.84.728h-.456c-.08 0-.112.062-.112.143v.875c0 .079.031.15.112.15h.417c.383-.008.864.313.9.795.01.138.03.568.03.568M95.257 34.848h-.872c-.082 0-.111.066-.111.145v1.022h1.166v-1.168zM94.275 45.048v.874c0 .08.028.153.11.153h1.057V44.908h-1.167z" fill="#fff"/><path d="M101.524 34.848h-.872c-.083 0-.107.066-.107.145v1.022h1.168v-1.168zM100.543 45.048v.874c0 .08.027.153.107.153h1.063V44.908h-1.169zM107.835 42.482v2.126c0 .872.55 1.466 1.43 1.466H111.069c.038 0 .118-.074.118-.151v-.877c0-.078-.11-.138-.192-.138h-1.529c-.378 0-.467-.162-.467-.592V41.8c0-.28-.082-.537-.147-.683h-1.956c.538.146.766.337.878.804.055.234.06.561.06.561M107.753 39.223c-.112.382-.366.581-.816.728h1.838c.112-.291.225-.486.225-.873V36.564c0-.424.076-.55.466-.55h1.603c.039 0 .118-.067.118-.146v-.876c0-.078-.11-.145-.192-.145H109.264c-.88 0-1.43.571-1.43 1.426v2.363s-.026.395-.082.587" fill="#fff"/><path d="M108.037 40.543c.295.107.617.282.816.574h2.141c.083 0 .192-.07.192-.148v-.875c0-.081-.11-.145-.192-.145h-2.22c-.146.293-.495.505-.737.594" fill="#fff"/><path d="M106.477 39.951c-.079 0-.1.064-.1.143v.875c0 .079.022.15.1.15h2.376c-.133-.295-.456-.494-.69-.584.241-.09.463-.293.61-.584h-1.837z" fill="#fff"/><path d="M113.597 102.13s8.795 3.04 7.714 5.878c-.395 1.036-1.558.063-1.558.063s9.196-1.135 9.651 2.143c.065.466-.889 1.097-.889 1.097s8.704-.386 12.832.764c.578.16 1.593.837 1.593.837s-4.014 1.093-4.13 2.742c-.073 1.034 2.325 2.065 2.325 2.065s-1.823 1.3-2.876 1.306c-3.876.019-10.634-4.71-10.634-4.71s-.064 1.482-.628 1.673c-3.234 1.099-8.7-5.414-8.7-5.414s.094.985-.43 1.033c-2.656.246-5.107-4.784-5.107-4.784zM66.928 56.114c-12.818.452-22.766 7.103-24.279 19.605-.286 2.361 1.922 5.01 4.147 5.3 2.638.344 4.1-3.575 6.36-4.818 1.638-.9 3.838 1.804 5.236.564 1.209-.66-3.582-3.043.076-5.996.93-.751-1.678 2.285-1.43 2.656 3.423 5.143 20.678 1.998 29.133-7.382 2.647-3.03-6.905 2.976-10.593 2.959-10.085.628-13.928.74-17.567 2.203 0 0 2.66-4.738 4.4-6.091 6.003-4.67 29.358-5.048 21.885-6.457-6.91-1.303-12.614-2.71-17.368-2.543zm-12.27 20.132c-3.07-.042-4.562 5.372-6.964 5.807 0 0 1.475 1.705 2.396 2.33 4.043 2.743 13.377 5.984 13.377 5.984s-1.275 1.503-.898 2.2c2.162 3.995 13.38 2.586 13.38 2.586s-2.07.424-1.603.945c1.098 1.224 3.27.659 5.721.285a204.14 204.14 0 0 1 5.914-.795l3.277-5.924s-10.044-3.565-12.984-.797c-.58.548.313 2.374.313 2.374s-7.352-8.5-11.147-6.483c-.553.294-.123 1.875-.123 1.875s-3.983-6.606-8.248-9.357c-.908-.72-1.701-1.02-2.41-1.03zM99.766 94.324s4.365-.699 4.24-6.798c-.042-2.027 5.511 2.953 6.056 1 2.894-10.384-1.367-16.242-1.367-16.242" fill="none" stroke="teal" stroke-width="1.2" stroke-miterlimit="4.6"/><path d="M99.927 94.293s-4.365-.698-4.24-6.798c.042-2.026-5.512 2.954-6.056 1-2.894-10.384 1.277-16.242 1.277-16.242" fill="none" stroke="teal" stroke-width="1.2" stroke-miterlimit="4.6"/><ellipse ry="3.659" rx="3.492" cy="69.341" cx="93.402" fill="none" stroke="teal" stroke-width="1.2" stroke-miterlimit="4.6" stroke-dashoffset="2.572"/><ellipse ry="3.659" rx="3.492" cy="69.341" cx="106.247" fill="none" stroke="teal" stroke-width="1.2" stroke-miterlimit="4.6" stroke-dashoffset="2.572"/><path d="M93.235 65.37s1.84-4.122 4.36-5.697c1.586-1.116 2.854-.64 4.113.147 2.247 1.396 4.13 5.687 4.13 5.687M90.781 118.702s-2.677 5.355-1.06 7.134c.411.452 1.832-.097 1.832-.097s-2.111 4.12-.868 5.495c.388.43 1.735-.096 1.735-.096s-2.165 4.275-.867 5.687c.326.356 1.446-.096 1.446-.096s-2.18 4.582-.51 5.845M108.782 118.706s2.677 5.355 1.06 7.134c-.411.452-1.831-.097-1.831-.097s2.11 4.12.867 5.495c-.388.43-1.735-.096-1.735-.096s2.165 4.275.868 5.687c-.327.356-1.446-.096-1.446-.096s2.09 4.046.867 5.398c-6.644 5.301 1.246 17.56-7.615 23.33M112.667 107.88s7.949 5.1 6.256 7.273c-.619.793-1.424-.319-1.424-.319s8.594 1.23 8.177 4.15c-.06.415-1.08.727-1.08.727s7.96 1.755 11.398 3.73c.481.276 1.228 1.1 1.228 1.1s-3.902-.027-4.423 1.36c-.327.87 1.578 2.329 1.578 2.329s-1.974.678-2.926.43c-3.507-.914-8.417-6.586-8.417-6.586s-.432 1.254-.99 1.284c-3.199.167-6.492-6.727-6.492-6.727s-.163.867-.648.783c-2.462-.426-3.213-4.747-3.213-4.747z" fill="none" stroke="teal" stroke-width="1.2" stroke-miterlimit="4.6"/><path d="M111.426 113.303s6.424 6.093 4.49 7.663c-.705.574-1.188-.57-1.188-.57s7.319 2.831 6.359 5.318c-.137.353-1.1.421-1.1.421s6.654 3.164 9.281 5.603c.368.34.859 1.218.859 1.218s-3.433-.815-4.173.3c-.465.699.917 2.371.917 2.371s-1.877.196-2.666-.216c-2.902-1.518-6.075-7.512-6.075-7.512s-.635 1.017-1.132.929c-2.852-.503-4.35-7.245-4.35-7.245s-.32.73-.731.558c-2.082-.876-2.688-3.648-2.688-3.648zM113.22 96.016s10.411-.159 10.114 3.163c-.109 1.213-1.629.532-1.629.532s9.386-3.942 10.844-.613c.207.474-.613 1.425-.613 1.425s9.088-3.003 13.795-3.019c.66 0 1.935.41 1.935.41s-3.919 2.354-3.55 4.131c.232 1.116 3.075 1.491 3.075 1.491s-1.54 1.919-2.651 2.238c-4.094 1.175-12.649-1.808-12.649-1.808s.374 1.585-.165 1.956c-3.092 2.126-10.814-3.13-10.814-3.13s.394 1.012-.146 1.22c-2.736 1.052-7.031-2.785-7.031-2.785zM85.545 102.188s-8.796 3.04-7.714 5.877c.394 1.036 1.558.064 1.558.064s-9.197-1.135-9.651 2.142c-.065.466.889 1.097.889 1.097s-8.704-.385-12.832.764c-.578.161-1.594.837-1.594.837s4.015 1.094 4.13 2.742c.073 1.034-2.324 2.066-2.324 2.066s1.823 1.3 2.875 1.305c3.877.02 10.635-4.709 10.635-4.709s.064 1.481.628 1.673c3.234 1.098 8.7-5.414 8.7-5.414s-.095.984.429 1.033c2.657.245 5.107-4.784 5.107-4.784z" fill="none" stroke="teal" stroke-width="1.2" stroke-miterlimit="4.6"/><path d="M86.475 107.938s-7.95 5.099-6.256 7.272c.618.794 1.423-.318 1.423-.318s-8.593 1.23-8.177 4.149c.06.415 1.08.728 1.08.728s-7.959 1.755-11.397 3.73c-.482.276-1.228 1.099-1.228 1.099s3.902-.027 4.423 1.36c.327.87-1.579 2.329-1.579 2.329s1.975.678 2.927.43c3.506-.913 8.417-6.585 8.417-6.585s.432 1.254.99 1.283c3.198.167 6.491-6.726 6.491-6.726s.163.866.649.782c2.462-.426 3.213-4.746 3.213-4.746z" fill="none" stroke="teal" stroke-width="1.2" stroke-miterlimit="4.6"/><path d="M87.716 113.36s-6.424 6.094-4.491 7.664c.706.573 1.189-.57 1.189-.57s-7.32 2.83-6.359 5.317c.137.354 1.1.421 1.1.421s-6.655 3.165-9.282 5.603c-.368.342-.858 1.218-.858 1.218s3.432-.815 4.173.3c.464.7-.917 2.372-.917 2.372s1.877.195 2.665-.216c2.903-1.518 6.075-7.513 6.075-7.513s.636 1.017 1.133.93c2.851-.504 4.35-7.245 4.35-7.245s.32.73.73.557c2.083-.876 2.689-3.648 2.689-3.648zM85.922 96.073s-10.412-.159-10.114 3.164c.108 1.213 1.628.532 1.628.532s-9.385-3.943-10.843-.613c-.208.473.613 1.425.613 1.425s-9.088-3.003-13.796-3.02c-.659 0-1.934.41-1.934.41s3.918 2.354 3.55 4.132c-.232 1.115-3.075 1.49-3.075 1.49s1.54 1.92 2.65 2.238c4.095 1.175 12.65-1.807 12.65-1.807s-.374 1.584.165 1.955c3.092 2.126 10.813-3.13 10.813-3.13s-.393 1.013.146 1.22c2.736 1.052 7.031-2.785 7.031-2.785zM132.003 55.989c12.819.452 22.766 7.104 24.28 19.605.285 2.362-1.922 5.011-4.147 5.301-2.638.344-4.1-3.576-6.361-4.818-1.638-.9-3.838 1.803-5.235.563-1.21-.66 3.582-3.043-.077-5.996-.93-.75 1.678 2.285 1.432 2.656-3.425 5.143-20.68 1.998-29.134-7.381-2.647-3.03 6.904 2.975 10.593 2.958 10.085.628 13.927.74 17.567 2.203 0 0-2.66-4.738-4.4-6.091-6.003-4.67-29.359-5.048-21.885-6.457 6.91-1.303 12.614-2.71 17.367-2.543zm12.27 20.133c3.071-.043 4.563 5.371 6.965 5.806 0 0-1.475 1.705-2.397 2.33-4.042 2.743-13.377 5.985-13.377 5.985s1.275 1.502.899 2.199c-2.162 3.996-13.381 2.586-13.381 2.586s2.07.424 1.603.945c-1.098 1.224-3.269.659-5.72.285a204.145 204.145 0 0 0-5.914-.795l-3.278-5.923s10.045-3.566 12.985-.797c.58.547-.313 2.373-.313 2.373s7.352-8.5 11.147-6.483c.552.294.123 1.875.123 1.875s3.983-6.606 8.248-9.357c.907-.72 1.701-1.02 2.41-1.03z" fill="none" stroke="teal" stroke-width="1.2" stroke-miterlimit="4.6"/><text y="155.31" x="78.212" style="line-height:0" font-weight="400" font-size="11.17" font-family="sans-serif" letter-spacing="0" word-spacing="0" fill="#fff" stroke-width=".279"><tspan style="-inkscape-font-specification:'Tlwg Typist Bold'" y="155.31" x="78.212" font-weight="700" font-size="10.425" font-family="Tlwg Typist">Cottbus</tspan></text></svg>