<?xml version="1.0" encoding="UTF-8" standalone="no"?>
<svg
   xmlns:dc="http://purl.org/dc/elements/1.1/"
   xmlns:cc="http://creativecommons.org/ns#"
   xmlns:rdf="http://www.w3.org/1999/02/22-rdf-syntax-ns#"
   xmlns:svg="http://www.w3.org/2000/svg"
   xmlns="http://www.w3.org/2000/svg"
   xmlns:sodipodi="http://sodipodi.sourceforge.net/DTD/sodipodi-0.dtd"
   xmlns:inkscape="http://www.inkscape.org/namespaces/inkscape"
   inkscape:version="1.0beta2 (2b71d25, 2019-12-03)"
   sodipodi:docname="CodeFor-cottbus.svg"
   version="1.1"
   id="Ebene_1"
   x="0px"
   y="0px"
   width="133.94608"
   height="154.30688"
   viewBox="0 0 133.94607 154.30688"
   enable-background="new 0 0 198.425 198.425"
   xml:space="preserve"><sodipodi:namedview
   inkscape:current-layer="Ebene_1"
   inkscape:window-maximized="1"
   inkscape:window-y="23"
   inkscape:window-x="0"
   inkscape:cy="86.922222"
   inkscape:cx="51.759542"
   inkscape:zoom="3.9988609"
   inkscape:pagecheckerboard="true"
   inkscape:snap-bbox="true"
   fit-margin-bottom="0"
   fit-margin-right="0"
   fit-margin-left="0"
   fit-margin-top="0"
   showgrid="false"
   id="namedview873"
   inkscape:window-height="1035"
   inkscape:window-width="1920"
   inkscape:pageshadow="2"
   inkscape:pageopacity="0"
   guidetolerance="10"
   gridtolerance="10"
   objecttolerance="10"
   borderopacity="1"
   inkscape:document-rotation="0"
   bordercolor="#666666"
   pagecolor="#ffffff" /><metadata
   id="metadata1401"><rdf:RDF><cc:Work
       rdf:about=""><dc:format>image/svg+xml</dc:format><dc:type
         rdf:resource="http://purl.org/dc/dcmitype/StillImage" /><dc:title></dc:title></cc:Work></rdf:RDF></metadata><defs
   id="defs1399" />



<path
   inkscape:connector-curvature="0"
   id="path877"
   d="M 0,38.576467 66.973036,0 133.94608,38.576467 V 115.73042 L 66.973036,154.30689 0,115.73042 Z"
   style="fill:#ffffff;stroke:none;stroke-width:1px;stroke-linecap:butt;stroke-linejoin:miter;stroke-opacity:1" /><path
   inkscape:connector-curvature="0"
   d="m 28.942575,28.539772 c 0,0 18.389273,-4.90504 36.061494,9.632731 1.058691,0.870917 3.167757,1.095164 4.111407,0.100762 13.85133,-14.596176 35.615024,-9.989669 35.615024,-9.989669 l 23.85772,13.389657 v 70.960367 l -26.40775,15.38085 c 0,0 -19.778624,-0.68456 -33.222224,-10.45181 -1.06136,-0.77112 -2.855389,-0.72321 -3.93568,0.0212 -14.298637,9.85241 -33.657408,10.58845 -33.657408,10.58845 L 5.357839,112.63351 V 41.673143 Z M 66.973036,0 0,38.576467 v 77.153953 l 66.973036,38.57647 66.973044,-38.57647 V 38.576467 Z"
   id="path5375"
   style="display:inline;opacity:1;fill:#008080;stroke-width:1.07157" /><path
   inkscape:connector-curvature="0"
   style="display:inline;opacity:0.382;fill:#008080;fill-opacity:1;stroke:#008080;stroke-width:0.279252px;stroke-linecap:butt;stroke-linejoin:miter;stroke-opacity:1"
   d="M 28.920975,27.198161 C 14.677716,28.698596 67.28481,5.759584 67.28481,5.759584 l 38.928,22.566917 c 0,0 -14.894934,-6.329688 -37.235494,9.167849 -2.13422,1.480479 -4.231329,0 -4.231329,0 0,0 -17.678751,-12.207723 -35.825012,-10.296189 z"
   id="path1890" /><path
   inkscape:connector-curvature="0"
   d="m 63.525555,27.510123 c -0.26948,-0.174614 -0.46696,-0.233575 -0.70046,-0.233575 -0.413669,0 -0.639911,0.259654 -0.639911,0.820082 v 0.285355 h 1.692056 v 0.657259 H 62.185184 V 32.73755 H 61.45877 v -3.698343 h -1.226563 v -0.65726 H 61.45877 V 28.11549 c 0,-1.055017 0.510187,-1.49605 1.340398,-1.49605 0.396321,0 0.664441,0.102425 0.906557,0.250582 z"
   id="path5439"
   style="display:inline;opacity:1;fill:#ffffff;stroke-width:1.44129" /><path
   inkscape:connector-curvature="0"
   d="m 67.019237,28.312895 c 1.331749,0 2.141739,1.0464 2.141739,2.247005 0,1.200566 -0.80999,2.248403 -2.141739,2.248403 -1.331716,0 -2.144655,-1.047837 -2.144655,-2.248403 0,-1.200605 0.812939,-2.247005 2.144655,-2.247005 m 0,3.838186 c 0.889279,0 1.399439,-0.752353 1.399439,-1.591181 0,-0.837393 -0.51038,-1.589745 -1.399439,-1.589745 -0.889285,0 -1.399483,0.752352 -1.399483,1.589745 0,0.838828 0.510198,1.591181 1.399483,1.591181"
   id="path5441"
   style="display:inline;opacity:1;fill:#ffffff;stroke-width:1.44129" /><path
   inkscape:connector-curvature="0"
   d="m 73.372466,29.764309 c -0.0593,-0.501581 -0.31861,-0.795591 -0.83886,-0.795591 -0.75958,0 -1.47731,0.717733 -1.47731,2.196511 v 1.572434 h -0.72355 v -4.355565 h 0.72355 v 0.802809 c 0.33714,-0.527546 0.8835,-0.873448 1.60989,-0.873448 0.86479,0 1.38225,0.520289 1.43267,1.45285 z"
   id="path5443"
   style="display:inline;opacity:1;fill:#ffffff;stroke-width:1.44129" /><polygon
   transform="matrix(1.4412895,0,0,1.4412895,-76.057971,-44.327661)"
   points="96.33,47.241 96.33,40.766 95.521,40.766 95.521,40.867 95.521,47.241 96.054,47.241 96.203,47.241 "
   id="polygon5445"
   style="display:inline;opacity:1;fill:#ffffff" /><path
   inkscape:connector-curvature="0"
   d="m 66.239105,24.63515 c 0.08239,0 0.185953,-0.0737 0.185953,-0.151559 V 13.552857 c 0,-0.07899 -0.103559,-0.145512 -0.185953,-0.145512 h -3.642142 c -0.07899,0 -0.108094,0.03024 -0.108094,0.0737 v 0.217701 0.729297 c 0,0.07899 0.02646,0.147024 0.108094,0.147024 h 2.47612 c 0.08239,0 0.185953,0.0635 0.185953,0.142488 v 8.600164 c 0,0.07899 -0.103937,0.149669 -0.185953,0.149669 h -2.47612 c -0.07899,0 -0.108094,0.02646 -0.108094,0.06765 v 0.218834 0.729298 c 0,0.07786 0.02646,0.151559 0.108094,0.151559 z"
   id="path5447"
   style="display:inline;opacity:1;fill:#ffffff;stroke-width:1.44129" /><polygon
   transform="matrix(1.4412895,0,0,1.4412895,-76.057971,-44.327661)"
   points="99.87,40.867 99.87,47.241 100.55,47.241 100.681,47.241 100.681,40.766 99.87,40.766 "
   id="polygon5449"
   style="display:inline;opacity:1;fill:#ffffff" /><path
   inkscape:connector-curvature="0"
   d="m 68.905446,24.629405 v -1.16742 c 1.60422,0 2.72262,-1.993323 2.72262,-4.444952 0,-2.450192 -1.11697,-4.444951 -2.72262,-4.444951 v -1.164548 c 2.18789,0 3.8872,2.516485 3.8872,5.609499 0,3.094451 -1.69931,5.612372 -3.8872,5.612372"
   id="path5451"
   style="display:inline;opacity:1;fill:#ffffff;stroke-width:1.44129" /><path
   inkscape:connector-curvature="0"
   d="m 56.804421,21.042029 v 1.607055 0.518853 c 0,0.871975 0.557776,1.465777 1.438402,1.465777 h 0.247937 0.71489 0.841704 c 0.04192,0 0.109569,-0.07332 0.109569,-0.151181 v -0.876322 c 0,-0.07786 -0.100914,-0.13833 -0.183043,-0.13833 h -0.835948 -0.428066 -0.263735 c -0.377613,0 -0.475616,-0.161386 -0.475616,-0.592366 v -0.255118 -1.40383 -0.856138 c 0,-0.877758 -0.357467,-1.202041 -0.794154,-1.362029 0.436721,-0.15685 0.794154,-0.48136 0.794154,-1.359118 V 17.03108 15.488882 15.125669 c 0,-0.423722 0.08364,-0.550563 0.475616,-0.550563 h 0.32863 0.416515 0.856124 c 0.04191,0 0.10953,-0.06803 0.10953,-0.147024 v -0.874847 c 0,-0.07899 -0.100913,-0.145512 -0.183042,-0.145512 h -0.70046 -0.658666 -0.37183 c -0.88063,0 -1.438412,0.572145 -1.438412,1.425411 v 0.456869 1.906848 c 0,0 -0.03061,0.438122 -0.05065,0.586582 -0.05624,0.394923 -0.5376,0.73217 -0.838832,0.727862 h -0.456873 c -0.08073,0 -0.112403,0.06198 -0.112403,0.142488 v 0.874885 c 0,0.07899 0.03175,0.149669 0.112403,0.149669 h 0.416508 c 0.383383,-0.0076 0.864771,0.314079 0.900801,0.795591 0.0102,0.13833 0.0291,0.567836 0.0291,0.567836"
   id="path5453"
   style="display:inline;opacity:1;fill:#ffffff;stroke-width:1.44129" /><path
   inkscape:connector-curvature="0"
   d="m 62.596963,13.407534 h -0.413707 -0.458305 c -0.08224,0 -0.110892,0.06614 -0.110892,0.145512 v 0.26948 0.605367 0.147024 h 0.110892 0.871974 0.183307 v -0.147024 -0.874885 -0.145512 z"
   id="path5455"
   style="display:inline;opacity:1;fill:#ffffff;stroke-width:1.44129" /><path
   inkscape:connector-curvature="0"
   d="m 61.615458,23.607534 v 0.413669 0.461216 c 0,0.07937 0.02797,0.152693 0.109644,0.152693 h 0.268195 0.605329 0.183307 v -0.152693 -0.874847 -0.139843 h -0.183307 -0.873411 -0.109644 z"
   id="path5457"
   style="display:inline;opacity:1;fill:#ffffff;stroke-width:1.44129" /><path
   inkscape:connector-curvature="0"
   d="m 68.863676,13.407534 h -0.41076 -0.46121 c -0.0824,0 -0.10658,0.06614 -0.10658,0.145512 v 0.26948 0.605367 0.147024 h 0.10658 0.87197 0.18898 v -0.147024 -0.874885 -0.145512 z"
   id="path5459"
   style="display:inline;opacity:1;fill:#ffffff;stroke-width:1.44129" /><path
   inkscape:connector-curvature="0"
   d="m 67.883616,23.607534 v 0.413669 0.461216 c 0,0.07937 0.0265,0.152693 0.10658,0.152693 h 0.26834 0.6053 0.18897 v -0.152693 -0.874847 -0.139843 h -0.18897 -0.87194 -0.10809 z"
   id="path5461"
   style="display:inline;opacity:1;fill:#ffffff;stroke-width:1.44129" /><path
   inkscape:connector-curvature="0"
   d="m 75.175076,21.042029 v 1.607055 0.518853 c 0,0.871975 0.54916,1.465777 1.42976,1.465777 h 0.24793 0.71486 0.84174 c 0.0378,0 0.11792,-0.07332 0.11792,-0.151181 v -0.876322 c 0,-0.07786 -0.1096,-0.13833 -0.192,-0.13833 h -0.83591 -0.42815 -0.26532 c -0.37758,0 -0.46681,-0.161386 -0.46681,-0.592366 v -0.255118 -1.40383 -0.856138 c 0,-0.280819 -0.0824,-0.537563 -0.14703,-0.68315 h -1.95564 c 0.53764,0.145512 0.76528,0.337134 0.87772,0.804208 0.0552,0.233575 0.0605,0.560693 0.0605,0.560693"
   id="path5463"
   style="display:inline;opacity:1;fill:#ffffff;stroke-width:1.44129" /><path
   inkscape:connector-curvature="0"
   d="m 75.092946,17.783282 c -0.11225,0.381997 -0.36624,0.580838 -0.81577,0.727862 h 1.83764 c 0.11225,-0.291402 0.22488,-0.48567 0.22488,-0.873412 v -0.605366 -1.542161 -0.366236 c 0,-0.423761 0.0763,-0.550564 0.46681,-0.550564 h 0.33033 0.41673 0.85607 c 0.0382,0 0.11792,-0.06614 0.11792,-0.145512 V 13.55161 c 0,-0.07786 -0.10961,-0.144378 -0.192,-0.144378 h -0.70042 -0.6587 -0.37191 c -0.88063,0 -1.42975,0.570746 -1.42975,1.425411 v 0.456869 1.906847 c 0,0 -0.0265,0.394923 -0.0824,0.586583"
   id="path5465"
   style="display:inline;opacity:1;fill:#ffffff;stroke-width:1.44129" /><path
   inkscape:connector-curvature="0"
   d="m 75.376866,19.103509 c 0.29518,0.106583 0.61689,0.281197 0.81581,0.573619 h 2.14171 c 0.0824,0 0.192,-0.06917 0.192,-0.148536 v -0.874885 c 0,-0.08088 -0.10961,-0.144378 -0.192,-0.144378 h -2.22101 c -0.14551,0.292536 -0.49462,0.504416 -0.73651,0.59384"
   id="path5467"
   style="display:inline;opacity:1;fill:#ffffff;stroke-width:1.44129" /><path
   inkscape:connector-curvature="0"
   d="m 73.817356,18.511144 c -0.079,0 -0.10091,0.0635 -0.10091,0.142488 v 0.874885 c 0,0.07937 0.0227,0.149669 0.10091,0.149669 h 0.41949 1.95583 c -0.13228,-0.294047 -0.4554,-0.492926 -0.69044,-0.583672 0.24189,-0.08957 0.46416,-0.292536 0.61114,-0.583748 h -1.83768 z"
   id="path5469"
   style="display:inline;opacity:1;fill:#ffffff;stroke-width:1.44129" /><path
   inkscape:connector-curvature="0"
   style="display:inline;opacity:1;fill:none;stroke:#008080;stroke-width:1.2;stroke-linecap:butt;stroke-linejoin:miter;stroke-miterlimit:4.6;stroke-dasharray:none;stroke-opacity:1"
   d="m 80.936766,80.69069 c 0,0 8.79579,3.0398 7.71443,5.87682 -0.39493,1.03608 -1.55823,0.0639 -1.55823,0.0639 0,0 9.19631,-1.13495 9.65126,2.14212 0.0646,0.46629 -0.88906,1.09728 -0.88906,1.09728 0,0 8.703764,-0.38544 12.831494,0.76373 0.57812,0.161 1.59379,0.83709 1.59379,0.83709 0,0 -4.01461,1.09364 -4.13046,2.74216 -0.0729,1.03415 2.32502,2.06566 2.32502,2.06566 0,0 -1.82283,1.3005 -2.87539,1.30541 -3.87678,0.0189 -10.634424,-4.7091 -10.634424,-4.7091 0,0 -0.0643,1.48078 -0.628,1.67233 -3.23418,1.09863 -8.70014,-5.4138 -8.70014,-5.4138 0,0 0.0945,0.98434 -0.42924,1.03279 -2.65678,0.24567 -5.10728,-4.78374 -5.10728,-4.78374 z"
   id="path7284-6" /><path
   inkscape:connector-curvature="0"
   id="path7284-3-3"
   d="m 34.268509,34.673599 c -12.81848,0.45215 -22.76626,7.10374 -24.2793,19.60547 -0.28576,2.36126 1.92189,5.01089 4.14649,5.30078 2.63842,0.34349 4.10074,-3.57618 6.36133,-4.81836 1.63726,-0.89961 3.83756,1.80355 5.23465,0.56334 1.20924,-0.6599 -3.58173,-3.04328 0.0769,-5.99621 0.93011,-0.75072 -1.67803,2.28542 -1.43136,2.65592 3.42435,5.14333 20.67908,1.9982 29.13356,-7.38125 2.64716,-3.03027 -6.90442,2.97523 -10.59287,2.9584 -10.08471,0.62856 -13.92763,0.74049 -17.56672,2.20315 0,0 2.66,-4.73764 4.39982,-6.09124 6.00265,-4.67013 29.35844,-5.04764 21.88477,-6.45703 -6.90956,-1.30299 -12.61411,-2.7104 -17.36719,-2.54297 z m -12.26953,20.13282 c -3.07139,-0.0428 -4.5629,5.37184 -6.96485,5.80664 0,0 1.47452,1.70456 2.39649,2.33008 4.04257,2.74257 13.37695,5.98437 13.37695,5.98437 0,0 -1.27524,1.50269 -0.89844,2.19922 2.16164,3.995599 13.38086,2.58594 13.38086,2.58594 0,0 -2.07092,0.42426 -1.60351,0.945309 1.09814,1.22415 3.269,0.65884 5.7207,0.28516 2.83854,-0.432569 5.91406,-0.794929 5.91406,-0.794929 l 3.27735,-5.92382 c 0,0 -10.04489,-3.56557 -12.98438,-0.79688 -0.58097,0.5472 0.3125,2.37305 0.3125,2.37305 0,0 -7.35178,-8.50031 -11.14648,-6.48242 -0.55278,0.29404 -0.12305,1.875 -0.12305,1.875 0,0 -3.98296,-6.60643 -8.24805,-9.35743 -0.90761,-0.71938 -1.70137,-1.01942 -2.41015,-1.02929 z"
   style="display:inline;opacity:1;fill:none;stroke:#008080;stroke-width:1.2;stroke-linecap:butt;stroke-linejoin:miter;stroke-miterlimit:4.6;stroke-dasharray:none;stroke-opacity:1" /><path
   inkscape:connector-curvature="0"
   style="display:inline;opacity:1;fill:none;stroke:#008080;stroke-width:1.2;stroke-linecap:butt;stroke-linejoin:miter;stroke-miterlimit:4.6;stroke-dasharray:none;stroke-opacity:1"
   d="m 67.106302,72.883843 c 0,0 4.364704,-0.698456 4.239374,-6.798009 -0.0416,-2.026583 5.5118,2.953625 6.05632,0.999723 2.89372,-10.383572 -1.36654,-16.24187 -1.36654,-16.24187"
   id="path7385" /><path
   inkscape:connector-curvature="0"
   style="display:inline;opacity:1;fill:none;stroke:#008080;stroke-width:1.2;stroke-linecap:butt;stroke-linejoin:miter;stroke-miterlimit:4.6;stroke-dasharray:none;stroke-opacity:1"
   d="m 67.266819,72.853267 c 0,0 -4.36475,-0.698457 -4.239421,-6.79801 0.04158,-2.026582 -5.511806,2.953663 -6.05633,0.999723 -2.893719,-10.383572 1.27725,-16.241832 1.27725,-16.241832"
   id="path7385-3" /><ellipse
   style="display:inline;opacity:1;fill:none;fill-opacity:1;stroke:#008080;stroke-width:1.2;stroke-miterlimit:4.6;stroke-dasharray:none;stroke-dashoffset:2.57197;stroke-opacity:1"
   id="path7402"
   cx="60.741863"
   cy="47.901241"
   rx="3.492367"
   ry="3.6586704" /><ellipse
   style="display:inline;opacity:1;fill:none;fill-opacity:1;stroke:#008080;stroke-width:1.2;stroke-miterlimit:4.6;stroke-dasharray:none;stroke-dashoffset:2.57197;stroke-opacity:1"
   id="path7402-0"
   cx="73.586937"
   cy="47.901241"
   rx="3.492367"
   ry="3.6586704" /><path
   inkscape:connector-curvature="0"
   style="display:inline;opacity:1;fill:none;stroke:#008080;stroke-width:1.2;stroke-linecap:butt;stroke-linejoin:miter;stroke-miterlimit:4.6;stroke-dasharray:none;stroke-opacity:1"
   d="m 60.574682,43.930243 c 0,0 1.839537,-4.121843 4.360376,-5.697373 1.586393,-1.115811 2.854078,-0.63981 4.113418,0.146986 2.24706,1.396493 4.12963,5.686733 4.12963,5.686733"
   id="path7470" /><path
   inkscape:connector-curvature="0"
   style="display:inline;opacity:1;fill:none;stroke:#008080;stroke-width:1.2;stroke-linecap:butt;stroke-linejoin:miter;stroke-miterlimit:4.6;stroke-dasharray:none;stroke-opacity:1"
   d="m 58.12153,97.26206 c 0,0 -2.677671,5.35495 -1.060422,7.13363 0.411307,0.45234 1.831616,-0.0964 1.831616,-0.0964 0,0 -2.11084,4.11905 -0.867595,5.49483 0.3884,0.42981 1.735208,-0.0964 1.735208,-0.0964 0,0 -2.164997,4.27526 -0.867613,5.68763 0.326778,0.35565 1.446024,-0.0964 1.446024,-0.0964 0,0 -2.179207,4.58223 -0.51047,5.84488"
   id="path7510" /><path
   inkscape:connector-curvature="0"
   style="display:inline;opacity:1;fill:none;stroke:#008080;stroke-width:1.2;stroke-linecap:butt;stroke-linejoin:miter;stroke-miterlimit:4.6;stroke-dasharray:none;stroke-opacity:1"
   d="m 76.121946,97.26596 c 0,0 2.67768,5.35494 1.06042,7.13359 -0.41129,0.45237 -1.83163,-0.0964 -1.83163,-0.0964 0,0 2.11083,4.11904 0.86763,5.49479 -0.38843,0.42981 -1.73522,-0.0964 -1.73522,-0.0964 0,0 2.16499,4.27525 0.86759,5.68762 -0.32693,0.35566 -1.44601,-0.0964 -1.44601,-0.0964 0,0 2.08992,4.04643 0.86763,5.39841 -6.64456,5.30096 1.24549,17.56068 -7.615635,23.32898"
   id="path7510-7" /><path
   inkscape:connector-curvature="0"
   style="display:inline;opacity:1;fill:none;stroke:#008080;stroke-width:1.2;stroke-linecap:butt;stroke-linejoin:miter;stroke-miterlimit:4.6;stroke-dasharray:none;stroke-opacity:1"
   d="m 80.007076,86.44026 c 0,0 7.94883,5.09937 6.2558,7.2726 -0.61826,0.79363 -1.4236,-0.31861 -1.4236,-0.31861 0,0 8.59344,1.23057 8.17701,4.1492 -0.0593,0.41522 -1.08004,0.72771 -1.08004,0.72771 0,0 7.95923,1.7551 11.397694,3.72948 0.48152,0.27667 1.22831,1.09954 1.22831,1.09954 0,0 -3.90244,-0.0264 -4.42329,1.36128 -0.326934,0.86921 1.57867,2.32815 1.57867,2.32815 0,0 -1.974804,0.67816 -2.926834,0.43015 -3.50638,-0.91344 -8.41708,-6.58553 -8.41708,-6.58553 0,0 -0.43185,1.25416 -0.98944,1.2833 -3.19873,0.16706 -6.49203,-6.72627 -6.49203,-6.72627 0,0 -0.16289,0.86665 -0.64841,0.78263 -2.4618,-0.42603 -3.21283,-4.74679 -3.21283,-4.74679 z"
   id="path7284-6-6" /><path
   inkscape:connector-curvature="0"
   style="display:inline;opacity:1;fill:none;stroke:#008080;stroke-width:1.2;stroke-linecap:butt;stroke-linejoin:miter;stroke-miterlimit:4.6;stroke-dasharray:none;stroke-opacity:1"
   d="m 78.765836,91.86274 c 0,0 6.42425,6.09355 4.49106,7.6636 -0.70597,0.57331 -1.18915,-0.57018 -1.18915,-0.57018 0,0 7.31917,2.83128 6.35894,5.31742 -0.13682,0.35376 -1.09935,0.42141 -1.09935,0.42141 0,0 6.65394,3.16434 9.2812,5.60262 0.36775,0.3413 0.85833,1.21826 0.85833,1.21826 0,0 -3.43241,-0.81498 -4.17298,0.29972 -0.46457,0.69917 0.91714,2.37169 0.91714,2.37169 0,0 -1.87736,0.19578 -2.66547,-0.21619 -2.90287,-1.5176 -6.07506,-7.51227 -6.07506,-7.51227 0,0 -0.63538,1.01692 -1.13242,0.9292 -2.85154,-0.50336 -4.35073,-7.24483 -4.35073,-7.24483 0,0 -0.31975,0.73029 -0.73028,0.55756 -2.08184,-0.87583 -2.68823,-3.64792 -2.68823,-3.64792 z"
   id="path7284-6-6-9" /><path
   inkscape:connector-curvature="0"
   style="display:inline;opacity:1;fill:none;stroke:#008080;stroke-width:1.2;stroke-linecap:butt;stroke-linejoin:miter;stroke-miterlimit:4.6;stroke-dasharray:none;stroke-opacity:1"
   d="m 80.560206,74.575749 c 0,0 10.41117,-0.15874 10.11383,3.163501 -0.10885,1.21319 -1.62856,0.532088 -1.62856,0.532088 0,0 9.38525,-3.942543 10.84354,-0.613228 0.207494,0.47376 -0.61285,1.42533 -0.61285,1.42533 0,0 9.087954,-3.003172 13.795124,-3.018972 0.65923,-0.001 1.93482,0.409702 1.93482,0.409702 0,0 -3.91873,2.35359 -3.54958,4.13125 0.2313,1.11511 3.07434,1.49072 3.07434,1.49072 0,0 -1.53948,1.91868 -2.65096,2.23775 -4.09368,1.17517 -12.648574,-1.80771 -12.648574,-1.80771 0,0 0.3738,1.58479 -0.16554,1.95545 -3.09203,2.12613 -10.81361,-3.12968 -10.81361,-3.12968 0,0 0.39383,1.0125 -0.14589,1.22 -2.73581,1.05203 -7.03124,-2.78517 -7.03124,-2.78517 z"
   id="path7284-6-1" /><path
   inkscape:connector-curvature="0"
   style="display:inline;opacity:1;fill:none;stroke:#008080;stroke-width:1.2;stroke-linecap:butt;stroke-linejoin:miter;stroke-miterlimit:4.6;stroke-dasharray:none;stroke-opacity:1"
   d="m 52.885104,80.7481 c 0,0 -8.795766,3.03983 -7.714375,5.87686 0.394916,1.03605 1.558201,0.0639 1.558201,0.0639 0,0 -9.196339,-1.13492 -9.65125,2.14212 -0.06463,0.46628 0.889062,1.09728 0.889062,1.09728 0,0 -8.703753,-0.38544 -12.831504,0.76376 -0.578094,0.16101 -1.5938,0.83706 -1.5938,0.83706 0,0 4.014625,1.09364 4.130479,2.74216 0.07272,1.03415 -2.325014,2.0657 -2.325014,2.0657 0,0 1.822794,1.30046 2.875378,1.30537 3.876756,0.0189 10.634419,-4.70906 10.634419,-4.70906 0,0 0.06421,1.48074 0.627998,1.67229 3.234176,1.09863 8.700171,-5.4138 8.700171,-5.4138 0,0 -0.09479,0.98434 0.429225,1.03279 2.656751,0.24567 5.107276,-4.78378 5.107276,-4.78378 z"
   id="path7284-6-19" /><path
   inkscape:connector-curvature="0"
   style="display:inline;opacity:1;fill:none;stroke:#008080;stroke-width:1.2;stroke-linecap:butt;stroke-linejoin:miter;stroke-miterlimit:4.6;stroke-dasharray:none;stroke-opacity:1"
   d="m 53.814838,86.49767 c 0,0 -7.94888,5.09937 -6.255825,7.27264 0.618262,0.79359 1.4236,-0.31862 1.4236,-0.31862 0,0 -8.593428,1.23058 -8.177011,4.14921 0.0593,0.41525 1.080072,0.72771 1.080072,0.72771 0,0 -7.95927,1.75513 -11.397691,3.72948 -0.481531,0.27666 -1.228324,1.09954 -1.228324,1.09954 0,0 3.902438,-0.0264 4.423268,1.36128 0.326816,0.86921 -1.578667,2.32815 -1.578667,2.32815 0,0 1.974833,0.67819 2.926855,0.43014 3.506381,-0.91343 8.417064,-6.58552 8.417064,-6.58552 0,0 0.431834,1.2542 0.989432,1.2833 3.198754,0.16706 6.492011,-6.72627 6.492011,-6.72627 0,0 0.162822,0.86664 0.648435,0.78263 2.461821,-0.42599 3.212832,-4.74679 3.212832,-4.74679 z"
   id="path7284-6-6-0" /><path
   inkscape:connector-curvature="0"
   style="display:inline;opacity:1;fill:none;stroke:#008080;stroke-width:1.2;stroke-linecap:butt;stroke-linejoin:miter;stroke-miterlimit:4.6;stroke-dasharray:none;stroke-opacity:1"
   d="m 55.05608,91.92015 c 0,0 -6.424279,6.09359 -4.491088,7.6636 0.705982,0.57332 1.189172,-0.57014 1.189172,-0.57014 0,0 -7.319169,2.83124 -6.358931,5.31738 0.13663,0.35376 1.099336,0.42141 1.099336,0.42141 0,0 -6.653945,3.16434 -9.281185,5.60262 -0.3679,0.34167 -0.858361,1.21826 -0.858361,1.21826 0,0 3.432434,-0.81498 4.172969,0.29972 0.46459,0.69917 -0.917156,2.37173 -0.917156,2.37173 0,0 1.877401,0.19578 2.665531,-0.21619 2.902817,-1.5176 6.075016,-7.51227 6.075016,-7.51227 0,0 0.635388,1.01692 1.132445,0.9292 2.851536,-0.50336 4.350739,-7.24483 4.350739,-7.24483 0,0 0.319597,0.73032 0.730265,0.55756 2.081847,-0.87583 2.688219,-3.64792 2.688219,-3.64792 z"
   id="path7284-6-6-9-8" /><path
   inkscape:connector-curvature="0"
   style="display:inline;opacity:1;fill:none;stroke:#008080;stroke-width:1.2;stroke-linecap:butt;stroke-linejoin:miter;stroke-miterlimit:4.6;stroke-dasharray:none;stroke-opacity:1"
   d="m 53.261704,74.633158 c 0,0 -10.411181,-0.158738 -10.113846,3.163502 0.108624,1.2132 1.628538,0.532088 1.628538,0.532088 0,0 -9.385228,-3.942542 -10.843514,-0.613188 -0.207382,0.473718 0.612824,1.42529 0.612824,1.42529 0,0 -9.087912,-3.003132 -13.795071,-3.018972 -0.659263,-10e-4 -1.934839,0.409742 -1.934839,0.409742 0,0 3.918701,2.35359 3.549574,4.13121 -0.231496,1.11511 -3.074363,1.49072 -3.074363,1.49072 0,0 1.539512,1.91868 2.650988,2.23775 4.093674,1.1752 12.648563,-1.80771 12.648563,-1.80771 0,0 -0.373682,1.58483 0.165316,1.95545 3.092005,2.12614 10.813565,-3.12968 10.813565,-3.12968 0,0 -0.393785,1.0125 0.145814,1.22004 2.735845,1.05199 7.031237,-2.78518 7.031237,-2.78518 z"
   id="path7284-6-1-9" /><path
   inkscape:connector-curvature="0"
   id="path7284-3-3-3"
   d="m 99.343376,34.548836 c 12.818484,0.452148 22.766264,7.103739 24.279304,19.605468 0.28577,2.361259 -1.92189,5.01089 -4.14649,5.300779 -2.63842,0.343484 -4.10074,-3.576177 -6.36133,-4.818357 -1.63726,-0.89961 -3.83756,1.803549 -5.23465,0.563339 -1.20924,-0.659902 3.58173,-3.04328 -0.0769,-5.996209 -0.93011,-0.75072 1.67803,2.28542 1.43136,2.655919 -3.42435,5.143329 -20.679084,1.998198 -29.133564,-7.381251 -2.64716,-3.03027 6.90441,2.975229 10.59287,2.958402 10.084714,0.628559 13.927634,0.740489 17.566724,2.203148 0,0 -2.66,-4.737638 -4.39982,-6.091238 -6.002654,-4.670132 -29.358444,-5.047643 -21.884774,-6.457032 6.90956,-1.302988 12.61411,-2.710398 17.36719,-2.542968 z m 12.269534,20.132818 c 3.07139,-0.04279 4.5629,5.371842 6.96485,5.806643 0,0 -1.47452,1.704559 -2.39649,2.330078 -4.04257,2.742569 -13.37695,5.984368 -13.37695,5.984368 0,0 1.27524,1.502691 0.89844,2.199221 -2.16164,3.995604 -13.380864,2.585941 -13.380864,2.585941 0,0 2.07092,0.42426 1.60351,0.945309 -1.09814,1.224154 -3.269,0.658844 -5.7207,0.285164 -2.83854,-0.432569 -5.91406,-0.794932 -5.91406,-0.794932 l -3.27735,-5.923819 c 0,0 10.04489,-3.565573 12.98438,-0.796884 0.58097,0.5472 -0.31249,2.373052 -0.31249,2.373052 0,0 7.35178,-8.500308 11.146484,-6.482419 0.55278,0.294048 0.12306,1.874998 0.12306,1.874998 0,0 3.98296,-6.606429 8.24805,-9.35743 0.90761,-0.719381 1.70137,-1.019418 2.41015,-1.02929 z"
   style="display:inline;opacity:1;fill:none;stroke:#008080;stroke-width:1.2;stroke-linecap:butt;stroke-linejoin:miter;stroke-miterlimit:4.6;stroke-dasharray:none;stroke-opacity:1" /><text
   xml:space="preserve"
   style="font-style:normal;font-weight:normal;font-size:11.1701px;line-height:0;font-family:sans-serif;letter-spacing:0px;word-spacing:0px;display:inline;opacity:1;fill:#ffffff;fill-opacity:1;stroke:none;stroke-width:0.279252"
   x="45.552578"
   y="133.86995"
   id="text6538"><tspan
     id="tspan6536"
     x="45.552578"
     y="133.86995"
     style="font-style:normal;font-variant:normal;font-weight:bold;font-stretch:normal;font-size:10.4254px;font-family:'Tlwg Typist';-inkscape-font-specification:'Tlwg Typist Bold';letter-spacing:0px;opacity:1;fill:#ffffff;fill-opacity:1;stroke-width:0.279252">Cottbus</tspan></text>

<path
   inkscape:connector-curvature="0"
   id="path875"
   d="M 0,38.576467 66.973036,0 133.94608,38.576467 V 115.73042 L 66.973036,154.30689 0,115.73042 Z"
   style="fill:#ffffff;stroke:#000000;stroke-width:1px;stroke-linecap:butt;stroke-linejoin:miter;stroke-opacity:1;opacity:0;fill-opacity:1" /></svg>
