<svg xmlns="http://www.w3.org/2000/svg" width="133.9" height="154.3" viewBox="0 0 133.94607 154.30688">
    <path d="M0 38.6L67 0l67 38.6v77.1l-67 38.6-67-38.6z" fill="#fff"/>
    <path d="M29 28.5s18.3-4.9 36 9.7c1 .8 3.2 1 4.1 0 13.9-14.5 35.6-10 35.6-10l23.9 13.5v71L102.2 128s-19.8-.7-33.2-10.4c-1.1-.8-2.9-.8-4 0a72.4 72.4 0 0 1-33.6 10.6l-26-15.6v-71zM67 0L0 38.6v77.1l67 38.6 67-38.6V38.6z" fill="teal"/>
    <path d="M29 27.2C14.6 28.7 67.2 5.8 67.2 5.8l39 22.5S91.2 22 69 37.5c-2.2 1.5-4.3 0-4.3 0S47.1 25.3 29 27.2z" opacity=".4" fill="teal" stroke="teal" stroke-width=".3"/>
    <path d="M63.5 27.5c-.2-.2-.4-.2-.7-.2-.4 0-.6.2-.6.8v.3h1.7v.6h-1.7v3.7h-.7V29h-1.3v-.6h1.3V28c0-1 .5-1.5 1.3-1.5.4 0 .7.1 1 .3zM67 28.3c1.4 0 2.2 1 2.2 2.3 0 1.2-.8 2.2-2.2 2.2-1.3 0-2.1-1-2.1-2.2 0-1.2.8-2.3 2.1-2.3m0 3.9c1 0 1.4-.8 1.4-1.6 0-.9-.5-1.6-1.4-1.6-.9 0-1.4.7-1.4 1.6 0 .8.5 1.6 1.4 1.6M73.4 29.8c0-.5-.3-.8-.9-.8-.7 0-1.4.7-1.4 2.2v1.5h-.8v-4.3h.8v.8c.3-.5.8-.9 1.6-.9s1.3.5 1.4 1.5zM62.8 23.8v-9.4h-1.2V23.8h1z" fill="#fff"/>
    <path d="M66.2 24.6l.2-.1v-11H62.6h-.1V14.4l.1.2h2.5l.2.1v8.6l-.2.2h-2.5-.1v1l.1.1zM67.9 14.6v9.2H69v-9.4h-1.2z" fill="#fff"/>
    <path d="M69 24.6v-1.1c1.5 0 2.6-2 2.6-4.5 0-2.4-1-4.4-2.7-4.4v-1.2c2.2 0 3.9 2.5 3.9 5.6 0 3.1-1.7 5.6-3.9 5.6M56.8 21v2.2c0 .8.6 1.4 1.4 1.4H60l.2-.1v-.9l-.2-.1h-1.6c-.3 0-.4-.2-.4-.6v-2.5c0-1-.4-1.2-.8-1.4.4-.2.8-.5.8-1.4v-2.5c0-.4 0-.5.4-.5H60s.2 0 .2-.2v-.8l-.2-.2H58.2c-.8 0-1.4.6-1.4 1.4v3c-.1.4-.6.7-.9.7h-.4c-.1 0-.2 0-.2.2v.8c0 .1 0 .2.2.2h.4c.4 0 .8.3.9.8v.5M62.6 13.4h-.9v1.2h1.1v-1.2zM61.6 23.6v.9l.1.1H62.8v-1.1h-1.1z" fill="#fff"/>
    <path d="M68.9 13.4H68l-.1.2v1h1.2v-1.2zM67.9 23.6v1h1.2v-1.1h-1.2zM75.2 21v2.2c0 .8.5 1.4 1.4 1.4h1.8l.1-.1v-.9l-.2-.1H76.8c-.4 0-.5-.2-.5-.6v-2.5l-.1-.7h-2c.6.1.8.3 1 .8v.5M75 17.8c0 .4-.3.6-.7.7H76l.2-.9v-2.5c0-.4.1-.5.5-.5h1.6l.1-.2v-.8c0-.1 0-.2-.2-.2H76.6c-.9 0-1.4.6-1.4 1.4v2.4l-.1.6" fill="#fff"/>
    <path d="M75.4 19.1c.3.1.6.3.8.6h2.1c.1 0 .2 0 .2-.2v-.8c0-.1 0-.2-.2-.2h-2.2c-.1.3-.5.5-.7.6" fill="#fff"/>
    <path d="M73.8 18.5v1.2h2.4c-.1-.3-.5-.5-.7-.6.2-.1.5-.3.6-.6h-1.8z" fill="#fff"/>
    <path d="M81 80.7s8.7 3 7.7 5.9c-.4 1-1.6 0-1.6 0s9.2-1.1 9.6 2.2c.1.4-.8 1-.8 1s8.7-.3 12.8.8a8 8 0 0 1 1.6.9s-4 1-4.2 2.7c0 1 2.4 2 2.4 2s-1.8 1.4-2.9 1.4c-3.9 0-10.6-4.7-10.6-4.7s-.1 1.5-.7 1.6c-3.2 1.1-8.7-5.4-8.7-5.4s.1 1-.4 1c-2.6.3-5.1-4.7-5.1-4.7zM34.3 34.7c-12.8.4-22.8 7-24.3 19.6-.3 2.3 2 5 4.1 5.3 2.7.3 4.1-3.6 6.4-4.8 1.6-1 3.8 1.8 5.2.5 1.2-.6-3.6-3 .1-6 1-.7-1.7 2.3-1.4 2.7 3.4 5.1 20.7 2 29.1-7.4 2.7-3-6.9 3-10.6 3-10 .6-14 .7-17.5 2.2 0 0 2.6-4.8 4.4-6.1 6-4.7 29.3-5 21.8-6.5-6.9-1.3-12.6-2.7-17.3-2.5zM22 54.8c-3 0-4.6 5.4-7 5.8 0 0 1.5 1.7 2.4 2.3 4 2.8 13.4 6 13.4 6s-1.3 1.5-.9 2.2c2.2 4 13.4 2.6 13.4 2.6s-2 .4-1.6 1c1 1.2 3.3.6 5.7.2l6-.8 3.2-5.9s-10-3.5-13-.8c-.6.6.3 2.4.3 2.4s-7.3-8.5-11.1-6.5c-.6.3-.1 1.9-.1 1.9s-4-6.6-8.3-9.4a4 4 0 0 0-2.4-1zM67.1 72.9s4.4-.7 4.2-6.8c0-2 5.6 3 6.1 1C80.3 56.7 76 50.8 76 50.8" fill="none" stroke="teal" stroke-width="1.2" stroke-miterlimit="4.6"/>
    <path d="M67.3 72.9s-4.4-.7-4.3-6.8c0-2-5.5 3-6 1-3-10.4 1.2-16.3 1.2-16.3" fill="none" stroke="teal" stroke-width="1.2" stroke-miterlimit="4.6"/>
    <ellipse cx="60.7" cy="47.9" rx="3.5" ry="3.7" fill="none" stroke="teal" stroke-width="1.2" stroke-miterlimit="4.6" stroke-dashoffset="2.6"/>
    <ellipse cx="73.6" cy="47.9" rx="3.5" ry="3.7" fill="none" stroke="teal" stroke-width="1.2" stroke-miterlimit="4.6" stroke-dashoffset="2.6"/>
    <path d="M60.6 44s1.8-4.2 4.3-5.8c1.6-1 2.9-.6 4.1.2 2.3 1.4 4.2 5.7 4.2 5.7M58.1 97.3s-2.7 5.3-1 7.1c.4.4 1.8-.1 1.8-.1s-2.1 4.1-.9 5.5c.4.4 1.8-.1 1.8-.1s-2.2 4.3-1 5.7c.4.3 1.5-.1 1.5-.1s-2.1 4.6-.5 5.8M76.1 97.3s2.7 5.3 1 7.1c-.3.5-1.7-.1-1.7-.1s2 4.1.8 5.5c-.4.4-1.7-.1-1.7-.1s2.1 4.3.9 5.7c-.4.3-1.5-.1-1.5-.1s2 4 .9 5.4C68 126 76 138.3 67.2 144M80 86.4s8 5.1 6.3 7.3c-.7.8-1.5-.3-1.5-.3s8.6 1.2 8.2 4.1c0 .5-1 .8-1 .8s7.9 1.7 11.3 3.7l1.3 1.1s-4 0-4.5 1.4c-.3.8 1.6 2.3 1.6 2.3s-2 .7-3 .4c-3.4-.9-8.3-6.6-8.3-6.6s-.5 1.3-1 1.3c-3.2.2-6.5-6.7-6.5-6.7s-.2.9-.7.8c-2.4-.5-3.2-4.8-3.2-4.8z" fill="none" stroke="teal" stroke-width="1.2" stroke-miterlimit="4.6"/>
    <path d="M78.8 91.9s6.4 6 4.5 7.6c-.7.6-1.2-.5-1.2-.5s7.3 2.8 6.3 5.3c-.1.3-1 .4-1 .4s6.6 3.2 9.2 5.6c.4.3.9 1.2.9 1.2s-3.5-.8-4.2.3c-.5.7 1 2.4 1 2.4s-2 .2-2.8-.2c-2.9-1.5-6-7.5-6-7.5s-.7 1-1.2.9c-2.8-.5-4.3-7.3-4.3-7.3s-.3.8-.7.6c-2.1-.9-2.7-3.6-2.7-3.6zM80.6 74.6s10.4-.2 10 3.1c0 1.3-1.6.6-1.6.6s9.4-4 10.9-.6c.2.4-.6 1.4-.6 1.4s9-3 13.8-3c.6 0 2 .4 2 .4s-4 2.3-3.6 4.1c.2 1.1 3 1.5 3 1.5s-1.5 2-2.6 2.2c-4.1 1.2-12.7-1.8-12.7-1.8s.4 1.6-.1 2c-3.1 2.1-10.8-3.1-10.8-3.1s.3 1-.2 1.2c-2.7 1-7-2.8-7-2.8zM52.9 80.7s-8.8 3-7.7 6c.4 1 1.5 0 1.5 0s-9.2-1.1-9.6 2.1c0 .5.9 1.1.9 1.1s-8.7-.4-12.9.8l-1.6.8s4 1.1 4.2 2.8c0 1-2.4 2-2.4 2s1.9 1.3 3 1.3c3.8 0 10.6-4.7 10.6-4.7s0 1.5.6 1.7c3.2 1.1 8.7-5.4 8.7-5.4s-.1 1 .4 1c2.7.3 5.1-4.8 5.1-4.8z" fill="none" stroke="teal" stroke-width="1.2" stroke-miterlimit="4.6"/>
    <path d="M53.8 86.5s-8 5.1-6.2 7.3c.6.8 1.4-.3 1.4-.3s-8.6 1.2-8.2 4.1c0 .4 1 .7 1 .7s-7.9 1.8-11.3 3.8c-.5.2-1.2 1-1.2 1s3.9 0 4.4 1.4c.3.9-1.6 2.3-1.6 2.3s2 .7 3 .5c3.4-1 8.3-6.6 8.3-6.6s.5 1.2 1 1.3c3.2.1 6.5-6.8 6.5-6.8s.2 1 .7.8c2.4-.4 3.2-4.7 3.2-4.7z" fill="none" stroke="teal" stroke-width="1.2" stroke-miterlimit="4.6"/>
    <path d="M55 92s-6.4 6-4.4 7.6c.7.6 1.2-.6 1.2-.6s-7.4 2.8-6.4 5.3c.1.4 1 .5 1 .5s-6.6 3.1-9.2 5.6c-.4.3-.8 1.2-.8 1.2s3.4-.8 4.1.3c.5.7-.9 2.3-.9 2.3s1.9.2 2.7-.2c2.9-1.5 6-7.5 6-7.5s.7 1 1.2 1c2.8-.6 4.3-7.3 4.3-7.3s.4.7.8.6c2-1 2.7-3.7 2.7-3.7zM53.3 74.6s-10.4-.1-10.2 3.2c.2 1.2 1.7.5 1.7.5s-9.4-4-10.9-.6c-.2.5.6 1.4.6 1.4s-9-3-13.7-3c-.7 0-2 .4-2 .4s4 2.4 3.6 4.2c-.3 1-3.1 1.5-3.1 1.5s1.5 1.9 2.6 2.2c4.1 1.2 12.7-1.8 12.7-1.8s-.4 1.6.2 2c3 2 10.8-3.2 10.8-3.2s-.4 1 .1 1.2c2.8 1 7-2.8 7-2.8zM99.3 34.5c12.9.5 22.8 7.2 24.3 19.7.3 2.3-1.9 5-4.1 5.3-2.7.3-4.1-3.6-6.4-4.9-1.6-.9-3.8 1.8-5.2.6-1.2-.7 3.6-3-.1-6-1-.7 1.7 2.3 1.4 2.7-3.4 5.1-20.6 2-29.1-7.4-2.6-3 7 3 10.6 3 10 .6 14 .7 17.6 2.1 0 0-2.7-4.7-4.4-6-6-4.7-29.4-5.1-22-6.5 7-1.3 12.7-2.7 17.4-2.6zm12.3 20.2c3 0 4.6 5.4 7 5.8 0 0-1.5 1.7-2.4 2.3-4 2.8-13.4 6-13.4 6s1.3 1.5.9 2.2c-2.2 4-13.4 2.6-13.4 2.6s2 .4 1.6 1c-1 1.2-3.2.6-5.7.2l-6-.8-3.2-5.9s10-3.6 13-.8c.6.5-.3 2.4-.3 2.4s7.3-8.5 11.1-6.5c.6.3.2 1.9.2 1.9s4-6.6 8.2-9.4a4 4 0 0 1 2.4-1z" fill="none" stroke="teal" stroke-width="1.2" stroke-miterlimit="4.6"/>
    <text style="line-height:0" x="45.6" y="133.9" font-weight="400" font-size="11.2" font-family="sans-serif" letter-spacing="0" word-spacing="0" fill="#fff" stroke-width=".3">
        <tspan x="45.6" y="133.9" style="-inkscape-font-specification:'Tlwg Typist Bold'" font-weight="700" font-size="10.4" font-family="Tlwg Typist">Cottbus</tspan>
    </text>
</svg>
