<?xml version="1.0" encoding="UTF-8" standalone="no"?>
<svg
   inkscape:version="1.1.1 (c3084ef, 2021-09-22)"
   sodipodi:docname="CodeFor-cottbus_with-background_inkscape.svg"
   version="1.1"
   id="Ebene_1"
   x="0px"
   y="0px"
   width="133.94608"
   height="154.30688"
   viewBox="0 0 133.94607 154.30688"
   enable-background="new 0 0 198.425 198.425"
   xml:space="preserve"
   xmlns:inkscape="http://www.inkscape.org/namespaces/inkscape"
   xmlns:sodipodi="http://sodipodi.sourceforge.net/DTD/sodipodi-0.dtd"
   xmlns="http://www.w3.org/2000/svg"
   xmlns:svg="http://www.w3.org/2000/svg"
   xmlns:rdf="http://www.w3.org/1999/02/22-rdf-syntax-ns#"
   xmlns:cc="http://creativecommons.org/ns#"
   xmlns:dc="http://purl.org/dc/elements/1.1/"><sodipodi:namedview
   inkscape:current-layer="Sechseck"
   inkscape:window-maximized="0"
   inkscape:window-y="305"
   inkscape:window-x="0"
   inkscape:cy="54.875279"
   inkscape:cx="127.4662"
   inkscape:zoom="2.3143391"
   inkscape:pagecheckerboard="true"
   inkscape:snap-bbox="true"
   fit-margin-bottom="0"
   fit-margin-right="0"
   fit-margin-left="0"
   fit-margin-top="0"
   showgrid="false"
   id="namedview873"
   inkscape:window-height="679"
   inkscape:window-width="1280"
   inkscape:pageshadow="2"
   inkscape:pageopacity="0"
   guidetolerance="10"
   gridtolerance="10"
   objecttolerance="10"
   borderopacity="1"
   inkscape:document-rotation="0"
   bordercolor="#666666"
   pagecolor="#ffffff" /><metadata
   id="metadata1401"><rdf:RDF><cc:Work
       rdf:about=""><dc:format>image/svg+xml</dc:format><dc:type
         rdf:resource="http://purl.org/dc/dcmitype/StillImage" /></cc:Work></rdf:RDF></metadata><defs
   id="defs1399" />





<g
   inkscape:groupmode="layer"
   id="layer2"
   inkscape:label="Linien"
   style="display:inline"><g
     id="Sechseck"><path
       inkscape:connector-curvature="0"
       id="logo-background"
       d="M 0,38.576467 66.973036,0 133.94608,38.576467 V 115.73042 L 66.973036,154.30689 0,115.73042 Z"
       style="display:inline;fill:#ffffff;fill-opacity:1;stroke:none;stroke-width:1px;stroke-linecap:butt;stroke-linejoin:miter;stroke-opacity:1" /><path
       id="Krebshintergrund"
       style="display:inline;fill:#ffffff;stroke-width:0.306032"
       d="m 98.060547,34.347656 c -4.845862,0.247925 -9.708457,1.091734 -14.367188,2.416016 -1.289303,0.827898 -0.01616,2.290683 1.166016,2.115234 6.016993,1.23106 12.464501,1.449213 18.000005,4.355469 2.23478,1.606766 3.73269,4.020264 5.0957,6.40625 l 0.5293,3.318359 c -0.35295,0.672286 -0.78461,1.339151 -0.66407,2.072266 0.29663,0.477254 0.6567,0.64494 1.05274,0.654297 -1.85734,1.240054 -3.34951,3.148266 -4.8418,4.738281 -0.94515,0.987784 -1.89276,2.827358 -2.70898,3.46875 -0.63596,-2.084347 -3.319981,-1.19087 -4.630864,-0.335937 -2.414927,1.198373 -4.56369,3.701539 -6.427734,5.017578 0.378828,-2.22216 -2.468887,-2.480013 -4.039063,-2.541016 -2.791606,0.165697 -5.721569,0.527326 -8.277343,1.695313 -0.243124,0.325789 -0.347941,0.663132 -0.365235,1.005859 -0.32436,-0.409944 -0.69046,-0.78105 -1.09375,-1.113281 0.188462,-0.0034 0.379381,-0.0249 0.574219,-0.07813 1.42465,-1.679504 1.198988,-4.211213 1.574219,-6.285157 0.01868,-3.379725 -0.357911,-7.040544 -2.160157,-9.958984 -0.267428,-0.2032 -0.553179,-0.288601 -0.847656,-0.310547 0.05385,-0.05041 0.10673,-0.104165 0.158203,-0.160156 2.157071,-1.597758 1.728104,-5.058061 -0.568359,-6.306641 -0.504565,-0.328288 -1.103293,-0.522895 -1.708984,-0.49414 -0.207319,0.01526 -0.409383,0.04901 -0.605469,0.09766 0.501957,-1.419528 -1.1938,-2.841803 -1.857422,-4.095703 -1.028924,-1.844584 -2.965802,-2.151836 -4.912109,-2.0625 -2.544573,0.159053 -3.955744,2.821368 -5.160157,4.753906 -0.21708,0.569147 -0.130093,0.983689 0.109375,1.324219 -0.141744,-0.01695 -0.284965,-0.02382 -0.427734,-0.01758 -2.422718,0.178392 -4.15573,2.747358 -3.392578,5.072265 0.234292,0.736584 0.738088,1.387586 1.371094,1.861329 -1.511642,0.214981 -1.745391,2.496068 -2.228516,3.705078 -1.102469,4.09692 -0.767138,8.496026 0.433594,12.521484 0.16971,0.157022 0.344856,0.264083 0.523437,0.335938 -0.241705,0.157442 -0.475767,0.325362 -0.691406,0.519531 -0.124474,0.176703 -0.244468,0.359477 -0.367187,0.539062 -0.803552,-1.739903 -3.254929,-1.383098 -4.822266,-1.919922 -2.483621,-0.264778 -5.462305,-1.094179 -7.697266,0.388672 -0.621609,0.292587 -0.378999,1.610249 -0.55664,1.617188 -2.707817,-2.411306 -5.533452,-5.551489 -9.351563,-5.888672 -0.885314,-0.0949 -1.336683,1.185975 -1.595703,1.382812 -2.2046,-3.066081 -4.55894,-6.358907 -7.775391,-8.451171 0.486866,-0.01053 0.897864,-0.238626 1.144532,-0.914063 -0.0045,-0.603907 -0.296837,-1.201595 -0.556641,-1.794922 0.117361,0.09977 0.251598,0.192755 0.410156,0.273438 l 0.923828,-4.019532 c -0.269628,0.08659 -0.52548,0.230862 -0.759765,0.410157 1.835917,-3.078136 3.862834,-6.407405 7.539062,-7.433594 5.665449,-2.013164 11.753399,-2.402265 17.552735,-3.65625 1.785593,-1.742141 -1.675513,-2.20121 -2.931641,-2.333984 -4.523254,-0.898722 -9.094287,-1.770875 -13.726563,-1.697266 -8.994436,0.08774 -18.745367,4.402829 -22.498046,13.037109 -1.032126,2.97419 -2.735324,6.516314 -1.097657,9.576172 1.123231,1.878597 3.780567,3.658003 5.761719,1.851563 0.835793,-0.517603 1.508301,-1.305099 2.19336,-2.064454 -0.780239,0.964483 -1.480786,2.040063 -2.306641,2.814454 -1.773416,1.67591 0.965037,3.277576 2.326172,4.015625 3.812448,2.135049 7.885427,3.736397 11.953125,5.304687 -1.273373,1.012132 -1.080696,2.600996 0.376953,3.289063 3.317654,2.386841 7.776569,1.320338 11.544922,1.636718 -0.206357,1.474648 1.218821,1.795779 2.410156,1.63086 -0.444977,0.205183 -0.865413,0.458757 -1.248047,0.78125 -0.688038,0.581726 0.203934,1.663787 0.38086,1.8125 -2.428135,-1.766013 -5.74302,-2.240363 -8.701172,-1.832031 -1.147223,0.105103 -1.785323,1.442956 -1.070313,2.367187 -4.322778,-1.168201 -8.65116,-2.562297 -13.128906,-2.943359 -1.6684,0.322911 -0.827111,2.30472 0.15625,2.921875 0.888996,0.664683 1.429737,2.265009 -0.01953,2.675781 -1.93703,0.201868 -1.558212,2.366021 0.05078,2.757812 3.643908,1.380858 7.678228,0.186387 11.3125,-0.695312 0.781572,-0.08966 2.150566,-1.175087 1.798828,0.261719 0.481416,1.99694 3.226286,1.452934 4.722656,1.05664 2.215506,-0.503708 4.626509,-2.136907 6.316407,-2.851562 0.42854,1.175656 1.481328,1.202711 2.537109,0.90039 -1.274823,0.746248 -2.415913,1.652734 -3.121094,2.966797 0.735923,1.154723 -1.235313,-0.0047 -1.818359,0.384766 -1.981001,0.306399 -4.518282,0.29836 -5.861328,1.99414 -0.624963,0.8533 1.207473,1.948183 -0.595704,1.544922 -3.75634,0.252696 -7.739716,-0.386202 -11.333984,0.828125 -1.539465,1.512176 1.360226,2.189498 2.097656,3.275391 0.572045,1.209578 -1.862091,2.175668 -0.658203,3.439453 2.231361,1.429868 4.969181,-0.233923 7.109375,-1.123047 1.709177,-0.74365 3.494313,-2.09169 5.015625,-2.728515 0.341045,2.059592 2.885021,1.678314 4.09375,0.65039 2.043097,-1.275766 3.847843,-2.908054 5.429688,-4.71875 0.418039,0.610006 0.895075,0.677347 1.384765,0.486328 -0.180789,0.113301 -0.370499,0.212315 -0.572265,0.294922 -1.387753,0.642903 -2.231364,2.945095 -0.957031,3.511719 -2.58224,0.220964 -5.741479,0.758521 -7.240235,3.103516 -0.543711,0.894592 1.28457,1.746206 -0.390625,1.697265 -3.184736,0.97016 -6.690551,1.468105 -9.511719,3.298832 -1.079706,1.68581 1.280819,1.90893 2.236329,2.53125 0.832633,0.77988 -1.069094,1.84946 -0.05859,2.75586 2.050437,1.38123 4.400318,-0.75863 6,-1.95117 1.52653,-1.10267 3.006486,-3.04695 4.361328,-3.83789 1.107249,1.8329 3.372384,0.20377 4.298828,-0.98047 1.358129,-1.472517 2.437509,-3.183514 3.308594,-4.982427 1.628385,0.317637 2.564943,-1.69402 3.433594,-2.775391 0.111358,-0.376622 0.180805,-0.773281 0.220703,-1.177734 0.148648,0.478542 0.309045,0.952794 0.478515,1.423828 -0.417721,-0.03436 -0.764267,-5.29e-4 -1.060547,0.373047 -0.881536,2.168927 -4.222488,2.946315 -3.99414,5.605468 1.168652,0.841121 -0.04064,0.618211 -0.771485,1.138672 -1.495707,1.026717 -3.91545,1.852057 -4.130859,3.894537 0.878476,1.12382 0.198389,1.2881 -0.9375,1.83398 -2.326709,1.405 -5.027878,2.47348 -6.896484,4.44531 -0.14426,1.68062 2.123264,1.08478 2.839843,1.97657 -0.385588,1.20735 0.360508,3.14573 1.898438,2.32812 2.82932,-1.71882 4.569788,-4.83511 6.246094,-7.51367 1.328087,1.55381 3.193781,-0.18717 3.697265,-1.58984 0.859162,-1.49265 1.454344,-3.35469 1.910157,-4.86524 1.8024,0.8066 3.143861,-1.624594 3.232421,-3.164064 0.09796,0.17304 0.192765,0.348367 0.294922,0.519532 -0.502337,1.974586 -1.882833,4.488102 -0.605469,6.435552 0.417778,0.75612 2.140223,-0.10484 1.337891,0.99023 -0.3978,1.51245 -1.635817,3.69995 -0.185547,4.95508 0.831915,0.31233 1.793827,-0.50496 0.91211,0.84961 -0.529872,1.40877 -1.485357,4.27079 0.724609,4.67187 0.497338,0.23894 -0.58516,1.68828 -0.5625,2.45313 -0.500897,1.21566 -0.185148,3.5721 1.626953,2.94141 2.344856,-0.82645 4.261149,-3.3264 6.892578,-3.02735 2.351205,0.79731 4.193928,3.26241 6.777344,3.18164 1.822883,-1.16624 0.467876,-3.72225 -0.115234,-5.27734 -0.377569,-0.58409 1.511593,0.14352 1.529296,-0.94727 0.370952,-1.62256 -0.605358,-3.55999 -0.876953,-4.84375 1.804073,0.71822 2.214644,-1.66331 1.628907,-2.86523 -0.197336,-0.88422 -0.560179,-1.81954 -0.865235,-2.60156 2.027732,0.59301 2.344438,-2.05176 1.904297,-3.41797 -0.07432,-0.80097 -0.414018,-1.583014 -0.660156,-2.353521 0.176292,0.341689 0.420101,0.662588 0.748047,0.953125 0.453207,0.878156 1.749412,0.724846 2.15039,0.818366 0.87003,2.54403 1.636056,5.85591 4.353516,6.98437 1.245391,-1.36587 1.630124,-0.0603 2.384766,1.13477 1.587727,2.11401 3.123572,4.80531 5.734375,5.71484 1.447513,0.0316 1.217969,-1.52081 1.144531,-2.45117 0.839431,-0.96041 3.58019,-0.28051 2.927734,-2.17188 -2.455594,-2.10444 -5.721709,-3.56248 -8.498047,-5.09961 1.757854,-1.05806 -0.172364,-2.9508 -1.320312,-3.59179 -1.167356,-0.99263 -2.848424,-1.410212 -4.09375,-2.029302 1.887433,-0.406534 0.80717,-2.763161 -0.417969,-3.330079 -1.449989,-0.627814 -1.854606,-2.303329 -3.005859,-3.197265 -0.161617,0.01999 -0.322758,0.0386 -0.484375,0.05859 0.122926,-0.363102 0.23614,-0.728973 0.347656,-1.095703 0.101288,0.664935 0.374679,1.285736 0.921875,1.808593 0.760576,0.717852 1.509365,2.123834 2.75,1.705078 1.421376,2.646376 3.03925,5.650478 5.875,6.955078 0.796331,0.24386 1.63467,-0.28313 1.910156,-1.03711 2.298106,2.43282 4.788932,4.97054 7.917969,6.2793 1.145001,0.66312 3.214851,-0.16779 2.396481,-1.66993 -1.060096,-1.31476 0.75917,-2.0171 1.7793,-2.1875 1.53351,-0.79394 0.10973,-2.45155 -1.10743,-2.55468 -2.823048,-1.225556 -6.337329,-1.912808 -8.902335,-2.816408 1.469507,-1.428253 -0.689033,-3.00429 -2.027344,-3.359375 -1.460336,-0.554968 -3.049319,-1.085711 -4.59375,-1.089843 1.658257,-1.069622 -0.224585,-2.946007 -1.333985,-3.580079 -0.125626,-0.06043 -0.246024,-0.128198 -0.363281,-0.199218 0.424928,0.159928 0.870039,0.15544 1.341797,-0.146485 0.62511,-0.249962 1.702005,1.652458 2.5625,2.132813 1.748035,1.291519 3.722625,3.487011 6.105469,2.919922 0.951338,-0.144396 0.683817,-2.10534 1.613281,-1.060547 3.323092,1.850445 6.894068,4.512907 10.904298,3.880859 1.81807,-0.719391 0.25285,-2.50462 -0.29102,-3.466797 0.3758,-1.490628 3.34887,-1.455708 2.75781,-3.347656 -2.39206,-1.375891 -5.4427,-0.765488 -8.11914,-1.095703 -1.468821,-0.10912 -3.418328,0.02134 -4.589838,-0.222656 1.119615,-1.795271 -1.467395,-2.774022 -2.84961,-2.925782 -1.867272,-0.415424 -3.923392,-0.399412 -5.669922,0.230469 1.384832,-0.71151 0.391996,-2.535973 -0.722656,-3.064453 -0.485568,-0.321901 -0.983076,-0.648807 -1.490234,-0.96289 0.142029,0.05759 0.302671,0.122446 0.4375,0.179687 0.991192,0.477383 2.226144,-0.274573 2.363281,-1.119141 3.159867,1.786984 6.797905,4.308202 10.558594,2.917969 0.191953,-1.764168 0.429034,-2.1009 2.181635,-1.298828 3.88213,0.80889 8.311,2.58214 12.03125,0.339844 1.47777,-1.125833 -0.25979,-2.475799 -1.40039,-2.869141 -0.8985,-1.959148 2.98516,-2.954586 1.3457,-4.794922 -2.09322,-0.701518 -4.37292,0.484995 -6.48828,0.736328 -2.28886,0.465695 -4.9271,1.349372 -6.937494,1.789063 0.742144,-2.047798 -2.056271,-2.637473 -3.533203,-2.416016 -2.074996,0.09146 -4.227051,0.580001 -5.96289,1.695313 0.687889,-0.785843 -0.09098,-2.170655 -1.220703,-2.28125 -0.118716,-0.04159 -0.239788,-0.07601 -0.359375,-0.115235 0.652208,0.05052 1.273255,-0.01702 1.816406,-0.359375 0.18196,-1.808223 1.876777,-0.998739 3.175781,-1.041015 3.257871,-0.04456 7.085008,-0.03988 9.591798,-2.416016 0.72308,-0.809493 0.35509,-2.008913 -0.23829,-2.734375 4.907,-1.997416 10.22132,-3.561803 14.35743,-6.992187 1.87063,-1.521158 -0.96278,-3.018332 -1.74024,-4.345703 -0.27178,-0.301906 -0.53957,-0.643023 -0.81836,-0.986329 0.47676,0.568965 0.9458,1.147321 1.50391,1.523438 1.28778,1.867446 4.08454,1.957188 5.50976,0.199219 2.16642,-1.645376 2.17212,-4.561321 1.39649,-6.921875 -1.34557,-5.269574 -4.47377,-10.14788 -9.24805,-12.919922 -4.71171,-3.01731 -10.49987,-4.094266 -16.021479,-4.132813 z M 80.363281,74.056641 c 0.306018,0.176139 0.648712,0.298054 1.017578,0.378906 -0.328847,0.140604 -0.547879,0.380623 -0.691406,0.679687 -0.09507,-0.356801 -0.203942,-0.709459 -0.326172,-1.058593 z m -26.998047,0.08008 c -0.08769,0.255419 -0.168719,0.512236 -0.242187,0.771484 -0.142523,-0.228172 -0.332963,-0.409424 -0.566406,-0.533203 0.272324,-0.07154 0.542315,-0.149626 0.808593,-0.238281 z m -0.644531,5.544922 c 0.03739,0.476229 0.07782,0.954014 0.123047,1.43164 -0.269244,-0.257751 -0.641889,-0.384933 -1.035156,-0.257812 0.36513,-0.343503 0.675546,-0.738576 0.912109,-1.173828 z m 28.367188,0.01172 c 0.294385,0.532166 0.724163,0.969917 1.232421,1.341797 -0.356561,-0.114958 -0.716001,-0.21796 -1.082031,-0.287109 l -0.277343,0.238281 c 0.04431,-0.431252 0.08772,-0.862386 0.126953,-1.292969 z m -0.798829,6.302735 c 0.07909,0.261094 0.18705,0.50987 0.324219,0.748047 -0.165028,0.05272 -0.329111,0.105482 -0.49414,0.158203 0.05715,-0.302027 0.117749,-0.603197 0.169921,-0.90625 z m -26.794921,0.05469 c 0.06446,0.369859 0.130317,0.739359 0.203125,1.107422 -0.124476,-0.05502 -0.257417,-0.08673 -0.416016,-0.07422 -0.155959,0.04361 -0.3024,0.102985 -0.445312,0.167969 0.295111,-0.363367 0.513513,-0.768195 0.658203,-1.201171 z m -7.984375,0.681641 c 0.01848,0.0048 0.05291,0.02629 0.111328,0.07813 -0.07222,0.04706 -0.166756,-0.09257 -0.111328,-0.07813 z"
       sodipodi:nodetypes="sccccccccccccccccccccccccccccccccccccccccccccccccccccccccccccccccccccccccccccccccccccccccccccccccccccccccccccccccccccccccccccccccccccccccccccccccccccccccccccccccccccccccccccccccccccccccccccccccssccccccccccccccccccccccccccscs" /><path
       inkscape:connector-curvature="0"
       d="m 28.942575,28.539772 c 0,0 18.389273,-4.90504 36.061494,9.632731 1.058691,0.870917 3.167757,1.095164 4.111407,0.100762 13.85133,-14.596176 35.615024,-9.989669 35.615024,-9.989669 l 23.85772,13.389657 v 70.960367 l -26.40775,15.38085 c 0,0 -19.778624,-0.68456 -33.222224,-10.45181 -1.06136,-0.77112 -2.855389,-0.72321 -3.93568,0.0212 -14.298637,9.85241 -33.657408,10.58845 -33.657408,10.58845 L 5.357839,112.63351 V 41.673143 Z M 66.973036,0 0,38.576467 v 77.153953 l 66.973036,38.57647 66.973044,-38.57647 V 38.576467 Z"
       id="path5375"
       style="display:inline;opacity:1;fill:#008080;stroke-width:1.07157" /><path
       inkscape:connector-curvature="0"
       style="display:inline;opacity:0.382;fill:#008080;fill-opacity:1;stroke:#008080;stroke-width:0.279252px;stroke-linecap:butt;stroke-linejoin:miter;stroke-opacity:1"
       d="M 28.920975,27.198161 C 14.677716,28.698596 67.28481,5.759584 67.28481,5.759584 l 38.928,22.566917 c 0,0 -14.894934,-6.329688 -37.235494,9.167849 -2.13422,1.480479 -4.231329,0 -4.231329,0 0,0 -17.678751,-12.207723 -35.825012,-10.296189 z"
       id="path1890" /><path
       inkscape:connector-curvature="0"
       d="m 63.525555,27.510123 c -0.26948,-0.174614 -0.46696,-0.233575 -0.70046,-0.233575 -0.413669,0 -0.639911,0.259654 -0.639911,0.820082 v 0.285355 h 1.692056 v 0.657259 H 62.185184 V 32.73755 H 61.45877 v -3.698343 h -1.226563 v -0.65726 H 61.45877 V 28.11549 c 0,-1.055017 0.510187,-1.49605 1.340398,-1.49605 0.396321,0 0.664441,0.102425 0.906557,0.250582 z"
       id="path5439"
       style="display:inline;opacity:1;fill:#ffffff;stroke-width:1.44129" /><path
       inkscape:connector-curvature="0"
       d="m 67.019237,28.312895 c 1.331749,0 2.141739,1.0464 2.141739,2.247005 0,1.200566 -0.80999,2.248403 -2.141739,2.248403 -1.331716,0 -2.144655,-1.047837 -2.144655,-2.248403 0,-1.200605 0.812939,-2.247005 2.144655,-2.247005 m 0,3.838186 c 0.889279,0 1.399439,-0.752353 1.399439,-1.591181 0,-0.837393 -0.51038,-1.589745 -1.399439,-1.589745 -0.889285,0 -1.399483,0.752352 -1.399483,1.589745 0,0.838828 0.510198,1.591181 1.399483,1.591181"
       id="path5441"
       style="display:inline;opacity:1;fill:#ffffff;stroke-width:1.44129" /><path
       inkscape:connector-curvature="0"
       d="m 73.372466,29.764309 c -0.0593,-0.501581 -0.31861,-0.795591 -0.83886,-0.795591 -0.75958,0 -1.47731,0.717733 -1.47731,2.196511 v 1.572434 h -0.72355 v -4.355565 h 0.72355 v 0.802809 c 0.33714,-0.527546 0.8835,-0.873448 1.60989,-0.873448 0.86479,0 1.38225,0.520289 1.43267,1.45285 z"
       id="path5443"
       style="display:inline;opacity:1;fill:#ffffff;stroke-width:1.44129" /><polygon
       transform="matrix(1.4412895,0,0,1.4412895,-76.057971,-44.327661)"
       points="96.054,47.241 96.203,47.241 96.33,47.241 96.33,40.766 95.521,40.766 95.521,40.867 95.521,47.241 "
       id="polygon5445"
       style="display:inline;opacity:1;fill:#ffffff" /><path
       inkscape:connector-curvature="0"
       d="m 66.239105,24.63515 c 0.08239,0 0.185953,-0.0737 0.185953,-0.151559 V 13.552857 c 0,-0.07899 -0.103559,-0.145512 -0.185953,-0.145512 h -3.642142 c -0.07899,0 -0.108094,0.03024 -0.108094,0.0737 v 0.217701 0.729297 c 0,0.07899 0.02646,0.147024 0.108094,0.147024 h 2.47612 c 0.08239,0 0.185953,0.0635 0.185953,0.142488 v 8.600164 c 0,0.07899 -0.103937,0.149669 -0.185953,0.149669 h -2.47612 c -0.07899,0 -0.108094,0.02646 -0.108094,0.06765 v 0.218834 0.729298 c 0,0.07786 0.02646,0.151559 0.108094,0.151559 z"
       id="path5447"
       style="display:inline;opacity:1;fill:#ffffff;stroke-width:1.44129" /><polygon
       transform="matrix(1.4412895,0,0,1.4412895,-76.057971,-44.327661)"
       points="100.681,40.766 99.87,40.766 99.87,40.867 99.87,47.241 100.55,47.241 100.681,47.241 "
       id="polygon5449"
       style="display:inline;opacity:1;fill:#ffffff" /><path
       inkscape:connector-curvature="0"
       d="m 68.905446,24.629405 v -1.16742 c 1.60422,0 2.72262,-1.993323 2.72262,-4.444952 0,-2.450192 -1.11697,-4.444951 -2.72262,-4.444951 v -1.164548 c 2.18789,0 3.8872,2.516485 3.8872,5.609499 0,3.094451 -1.69931,5.612372 -3.8872,5.612372"
       id="path5451"
       style="display:inline;opacity:1;fill:#ffffff;stroke-width:1.44129" /><path
       inkscape:connector-curvature="0"
       d="m 56.804421,21.042029 v 1.607055 0.518853 c 0,0.871975 0.557776,1.465777 1.438402,1.465777 h 0.247937 0.71489 0.841704 c 0.04192,0 0.109569,-0.07332 0.109569,-0.151181 v -0.876322 c 0,-0.07786 -0.100914,-0.13833 -0.183043,-0.13833 h -0.835948 -0.428066 -0.263735 c -0.377613,0 -0.475616,-0.161386 -0.475616,-0.592366 v -0.255118 -1.40383 -0.856138 c 0,-0.877758 -0.357467,-1.202041 -0.794154,-1.362029 0.436721,-0.15685 0.794154,-0.48136 0.794154,-1.359118 V 17.03108 15.488882 15.125669 c 0,-0.423722 0.08364,-0.550563 0.475616,-0.550563 h 0.32863 0.416515 0.856124 c 0.04191,0 0.10953,-0.06803 0.10953,-0.147024 v -0.874847 c 0,-0.07899 -0.100913,-0.145512 -0.183042,-0.145512 h -0.70046 -0.658666 -0.37183 c -0.88063,0 -1.438412,0.572145 -1.438412,1.425411 v 0.456869 1.906848 c 0,0 -0.03061,0.438122 -0.05065,0.586582 -0.05624,0.394923 -0.5376,0.73217 -0.838832,0.727862 h -0.456873 c -0.08073,0 -0.112403,0.06198 -0.112403,0.142488 v 0.874885 c 0,0.07899 0.03175,0.149669 0.112403,0.149669 h 0.416508 c 0.383383,-0.0076 0.864771,0.314079 0.900801,0.795591 0.0102,0.13833 0.0291,0.567836 0.0291,0.567836"
       id="path5453"
       style="display:inline;opacity:1;fill:#ffffff;stroke-width:1.44129" /><path
       inkscape:connector-curvature="0"
       d="m 62.596963,13.407534 h -0.413707 -0.458305 c -0.08224,0 -0.110892,0.06614 -0.110892,0.145512 v 0.26948 0.605367 0.147024 h 0.110892 0.871974 0.183307 v -0.147024 -0.874885 -0.145512 z"
       id="path5455"
       style="display:inline;opacity:1;fill:#ffffff;stroke-width:1.44129" /><path
       inkscape:connector-curvature="0"
       d="m 61.615458,23.607534 v 0.413669 0.461216 c 0,0.07937 0.02797,0.152693 0.109644,0.152693 h 0.268195 0.605329 0.183307 v -0.152693 -0.874847 -0.139843 h -0.183307 -0.873411 -0.109644 z"
       id="path5457"
       style="display:inline;opacity:1;fill:#ffffff;stroke-width:1.44129" /><path
       inkscape:connector-curvature="0"
       d="m 68.863676,13.407534 h -0.41076 -0.46121 c -0.0824,0 -0.10658,0.06614 -0.10658,0.145512 v 0.26948 0.605367 0.147024 h 0.10658 0.87197 0.18898 v -0.147024 -0.874885 -0.145512 z"
       id="path5459"
       style="display:inline;opacity:1;fill:#ffffff;stroke-width:1.44129" /><path
       inkscape:connector-curvature="0"
       d="m 67.883616,23.607534 v 0.413669 0.461216 c 0,0.07937 0.0265,0.152693 0.10658,0.152693 h 0.26834 0.6053 0.18897 v -0.152693 -0.874847 -0.139843 h -0.18897 -0.87194 -0.10809 z"
       id="path5461"
       style="display:inline;opacity:1;fill:#ffffff;stroke-width:1.44129" /><path
       inkscape:connector-curvature="0"
       d="m 75.175076,21.042029 v 1.607055 0.518853 c 0,0.871975 0.54916,1.465777 1.42976,1.465777 h 0.24793 0.71486 0.84174 c 0.0378,0 0.11792,-0.07332 0.11792,-0.151181 v -0.876322 c 0,-0.07786 -0.1096,-0.13833 -0.192,-0.13833 h -0.83591 -0.42815 -0.26532 c -0.37758,0 -0.46681,-0.161386 -0.46681,-0.592366 v -0.255118 -1.40383 -0.856138 c 0,-0.280819 -0.0824,-0.537563 -0.14703,-0.68315 h -1.95564 c 0.53764,0.145512 0.76528,0.337134 0.87772,0.804208 0.0552,0.233575 0.0605,0.560693 0.0605,0.560693"
       id="path5463"
       style="display:inline;opacity:1;fill:#ffffff;stroke-width:1.44129" /><path
       inkscape:connector-curvature="0"
       d="m 75.092946,17.783282 c -0.11225,0.381997 -0.36624,0.580838 -0.81577,0.727862 h 1.83764 c 0.11225,-0.291402 0.22488,-0.48567 0.22488,-0.873412 v -0.605366 -1.542161 -0.366236 c 0,-0.423761 0.0763,-0.550564 0.46681,-0.550564 h 0.33033 0.41673 0.85607 c 0.0382,0 0.11792,-0.06614 0.11792,-0.145512 V 13.55161 c 0,-0.07786 -0.10961,-0.144378 -0.192,-0.144378 h -0.70042 -0.6587 -0.37191 c -0.88063,0 -1.42975,0.570746 -1.42975,1.425411 v 0.456869 1.906847 c 0,0 -0.0265,0.394923 -0.0824,0.586583"
       id="path5465"
       style="display:inline;opacity:1;fill:#ffffff;stroke-width:1.44129" /><path
       inkscape:connector-curvature="0"
       d="m 75.376866,19.103509 c 0.29518,0.106583 0.61689,0.281197 0.81581,0.573619 h 2.14171 c 0.0824,0 0.192,-0.06917 0.192,-0.148536 v -0.874885 c 0,-0.08088 -0.10961,-0.144378 -0.192,-0.144378 h -2.22101 c -0.14551,0.292536 -0.49462,0.504416 -0.73651,0.59384"
       id="path5467"
       style="display:inline;opacity:1;fill:#ffffff;stroke-width:1.44129" /><path
       inkscape:connector-curvature="0"
       d="m 73.817356,18.511144 c -0.079,0 -0.10091,0.0635 -0.10091,0.142488 v 0.874885 c 0,0.07937 0.0227,0.149669 0.10091,0.149669 h 0.41949 1.95583 c -0.13228,-0.294047 -0.4554,-0.492926 -0.69044,-0.583672 0.24189,-0.08957 0.46416,-0.292536 0.61114,-0.583748 h -1.83768 z"
       id="path5469"
       style="display:inline;opacity:1;fill:#ffffff;stroke-width:1.44129" /><path
       inkscape:connector-curvature="0"
       style="display:inline;opacity:1;fill:none;stroke:#008080;stroke-width:1.2;stroke-linecap:butt;stroke-linejoin:miter;stroke-miterlimit:4.6;stroke-dasharray:none;stroke-opacity:1"
       d="m 80.936766,80.69069 c 0,0 8.79579,3.0398 7.71443,5.87682 -0.39493,1.03608 -1.55823,0.0639 -1.55823,0.0639 0,0 9.19631,-1.13495 9.65126,2.14212 0.0646,0.46629 -0.88906,1.09728 -0.88906,1.09728 0,0 8.703764,-0.38544 12.831494,0.76373 0.57812,0.161 1.59379,0.83709 1.59379,0.83709 0,0 -4.01461,1.09364 -4.13046,2.74216 -0.0729,1.03415 2.32502,2.06566 2.32502,2.06566 0,0 -1.82283,1.3005 -2.87539,1.30541 -3.87678,0.0189 -10.634424,-4.7091 -10.634424,-4.7091 0,0 -0.0643,1.48078 -0.628,1.67233 -3.23418,1.09863 -8.70014,-5.4138 -8.70014,-5.4138 0,0 0.0945,0.98434 -0.42924,1.03279 -2.65678,0.24567 -5.10728,-4.78374 -5.10728,-4.78374 z"
       id="path7284-6" /><g
       id="g8874"><path
         style="display:inline;opacity:1;fill:none;stroke:#008080;stroke-width:1;stroke-linecap:butt;stroke-linejoin:miter;stroke-miterlimit:4.6;stroke-dasharray:none;stroke-opacity:1"
         d="m 21.998979,54.806419 c -3.07139,-0.0428 -4.5629,5.37184 -6.96485,5.80664 0,0 1.47452,1.70456 2.39649,2.33008 4.04257,2.74257 13.37695,5.98437 13.37695,5.98437 0,0 -1.27524,1.50269 -0.89844,2.19922 2.16164,3.995599 13.38086,2.58594 13.38086,2.58594 0,0 -2.07092,0.42426 -1.60351,0.945309 1.09814,1.22415 3.269,0.65884 5.7207,0.28516 2.83854,-0.432569 5.91406,-0.794929 5.91406,-0.794929 l 3.27735,-5.92382 c 0,0 -10.04489,-3.56557 -12.98438,-0.79688 -0.58097,0.5472 0.3125,2.37305 0.3125,2.37305 0,0 -7.35178,-8.50031 -11.14648,-6.48242 -0.55278,0.29404 -0.12305,1.875 -0.12305,1.875 0,0 -3.98296,-6.60643 -8.24805,-9.35743 -0.90761,-0.71938 -1.70137,-1.01942 -2.41015,-1.02929 z"
         id="path7484" /><path
         style="display:inline;opacity:1;fill:#ffffff;stroke:#008080;stroke-width:1.2;stroke-linecap:butt;stroke-linejoin:miter;stroke-miterlimit:4.6;stroke-dasharray:none;stroke-opacity:1"
         d="m 24.54234,52.131313 c 2.921541,5.444687 20.513959,1.851426 28.968439,-7.528024 2.64716,-3.03027 -6.941382,2.716494 -10.629832,2.699664 -10.08471,0.62856 -13.900706,0.974496 -17.529758,2.461886 -0.377636,0.154777 -1.489813,1.097406 -0.808849,2.366474 z"
         id="Greifer-links"
         sodipodi:nodetypes="sccss"
         inkscape:transform-center-x="-12.895138"
         inkscape:transform-center-y="-2.516411"
         class="Krebskoerper Greifer" /><path
         style="display:inline;opacity:1;fill:#ffffff;stroke:#008080;stroke-width:1.2;stroke-linecap:butt;stroke-linejoin:miter;stroke-miterlimit:4.6;stroke-dasharray:none;stroke-opacity:1"
         d="m 29.99104,43.769611 c 6.00265,-4.67013 29.118409,-5.143652 21.644739,-6.553042 -6.90956,-1.30299 -12.61411,-2.7104 -17.36719,-2.54297 h -8e-5 c -12.81848,0.45215 -22.76626,7.10374 -24.2793,19.60547 -0.28576,2.36126 1.92189,5.01089 4.14649,5.30078 2.63842,0.34349 4.10074,-3.57618 6.36133,-4.81836 1.63726,-0.89961 3.527873,1.454212 4.929893,0.468103 1.40202,-0.986108 -1.897072,-3.165756 -0.07573,-5.464753 1.821339,-2.298997 2.900031,-4.641628 4.639851,-5.995228 z"
         id="path7482"
         class="Krebskoerper" /></g><path
       inkscape:connector-curvature="0"
       style="display:inline;opacity:1;fill:none;stroke:#008080;stroke-width:1.2;stroke-linecap:butt;stroke-linejoin:miter;stroke-miterlimit:4.6;stroke-dasharray:none;stroke-opacity:1"
       d="m 67.106302,72.883843 c 0,0 4.364704,-0.698456 4.239374,-6.798009 -0.0416,-2.026583 5.5118,2.953625 6.05632,0.999723 2.89372,-10.383572 -1.36654,-16.24187 -1.36654,-16.24187"
       id="path7385" /><path
       inkscape:connector-curvature="0"
       style="display:inline;opacity:1;fill:none;stroke:#008080;stroke-width:1.2;stroke-linecap:butt;stroke-linejoin:miter;stroke-miterlimit:4.6;stroke-dasharray:none;stroke-opacity:1"
       d="m 67.266819,72.853267 c 0,0 -4.36475,-0.698457 -4.239421,-6.79801 0.04158,-2.026582 -5.511806,2.953663 -6.05633,0.999723 -2.893719,-10.383572 1.27725,-16.241832 1.27725,-16.241832"
       id="path7385-3" /><ellipse
       style="display:inline;opacity:1;fill:none;fill-opacity:1;stroke:#008080;stroke-width:1.2;stroke-miterlimit:4.6;stroke-dasharray:none;stroke-dashoffset:2.57197;stroke-opacity:1"
       id="path7402"
       cx="60.741863"
       cy="47.901241"
       rx="3.492367"
       ry="3.6586704" /><ellipse
       style="display:inline;opacity:1;fill:none;fill-opacity:1;stroke:#008080;stroke-width:1.2;stroke-miterlimit:4.6;stroke-dasharray:none;stroke-dashoffset:2.57197;stroke-opacity:1"
       id="path7402-0"
       cx="73.586937"
       cy="47.901241"
       rx="3.492367"
       ry="3.6586704" /><path
       inkscape:connector-curvature="0"
       style="display:inline;opacity:1;fill:none;stroke:#008080;stroke-width:1.2;stroke-linecap:butt;stroke-linejoin:miter;stroke-miterlimit:4.6;stroke-dasharray:none;stroke-opacity:1"
       d="m 60.574682,43.930243 c 0,0 1.839537,-4.121843 4.360376,-5.697373 1.586393,-1.115811 2.854078,-0.63981 4.113418,0.146986 2.24706,1.396493 4.12963,5.686733 4.12963,5.686733"
       id="path7470" /><path
       inkscape:connector-curvature="0"
       style="display:inline;opacity:1;fill:none;stroke:#008080;stroke-width:1.2;stroke-linecap:butt;stroke-linejoin:miter;stroke-miterlimit:4.6;stroke-dasharray:none;stroke-opacity:1"
       d="m 58.12153,97.26206 c 0,0 -2.677671,5.35495 -1.060422,7.13363 0.411307,0.45234 1.831616,-0.0964 1.831616,-0.0964 0,0 -2.11084,4.11905 -0.867595,5.49483 0.3884,0.42981 1.735208,-0.0964 1.735208,-0.0964 0,0 -2.164997,4.27526 -0.867613,5.68763 0.326778,0.35565 1.446024,-0.0964 1.446024,-0.0964 0,0 -2.179207,4.58223 -0.51047,5.84488"
       id="path7510" /><path
       inkscape:connector-curvature="0"
       style="display:inline;opacity:1;fill:none;stroke:#008080;stroke-width:1.2;stroke-linecap:butt;stroke-linejoin:miter;stroke-miterlimit:4.6;stroke-dasharray:none;stroke-opacity:1"
       d="m 76.121946,97.26596 c 0,0 2.67768,5.35494 1.06042,7.13359 -0.41129,0.45237 -1.83163,-0.0964 -1.83163,-0.0964 0,0 2.11083,4.11904 0.86763,5.49479 -0.38843,0.42981 -1.73522,-0.0964 -1.73522,-0.0964 0,0 2.16499,4.27525 0.86759,5.68762 -0.32693,0.35566 -1.44601,-0.0964 -1.44601,-0.0964 0,0 2.08992,4.04643 0.86763,5.39841 -6.64456,5.30096 1.24549,17.56068 -7.615635,23.32898"
       id="path7510-7" /><path
       inkscape:connector-curvature="0"
       style="display:inline;opacity:1;fill:none;stroke:#008080;stroke-width:1.2;stroke-linecap:butt;stroke-linejoin:miter;stroke-miterlimit:4.6;stroke-dasharray:none;stroke-opacity:1"
       d="m 80.007076,86.44026 c 0,0 7.94883,5.09937 6.2558,7.2726 -0.61826,0.79363 -1.4236,-0.31861 -1.4236,-0.31861 0,0 8.59344,1.23057 8.17701,4.1492 -0.0593,0.41522 -1.08004,0.72771 -1.08004,0.72771 0,0 7.95923,1.7551 11.397694,3.72948 0.48152,0.27667 1.22831,1.09954 1.22831,1.09954 0,0 -3.90244,-0.0264 -4.42329,1.36128 -0.326934,0.86921 1.57867,2.32815 1.57867,2.32815 0,0 -1.974804,0.67816 -2.926834,0.43015 -3.50638,-0.91344 -8.41708,-6.58553 -8.41708,-6.58553 0,0 -0.43185,1.25416 -0.98944,1.2833 -3.19873,0.16706 -6.49203,-6.72627 -6.49203,-6.72627 0,0 -0.16289,0.86665 -0.64841,0.78263 -2.4618,-0.42603 -3.21283,-4.74679 -3.21283,-4.74679 z"
       id="path7284-6-6" /><path
       inkscape:connector-curvature="0"
       style="display:inline;opacity:1;fill:none;stroke:#008080;stroke-width:1.2;stroke-linecap:butt;stroke-linejoin:miter;stroke-miterlimit:4.6;stroke-dasharray:none;stroke-opacity:1"
       d="m 78.765836,91.86274 c 0,0 6.42425,6.09355 4.49106,7.6636 -0.70597,0.57331 -1.18915,-0.57018 -1.18915,-0.57018 0,0 7.31917,2.83128 6.35894,5.31742 -0.13682,0.35376 -1.09935,0.42141 -1.09935,0.42141 0,0 6.65394,3.16434 9.2812,5.60262 0.36775,0.3413 0.85833,1.21826 0.85833,1.21826 0,0 -3.43241,-0.81498 -4.17298,0.29972 -0.46457,0.69917 0.91714,2.37169 0.91714,2.37169 0,0 -1.87736,0.19578 -2.66547,-0.21619 -2.90287,-1.5176 -6.07506,-7.51227 -6.07506,-7.51227 0,0 -0.63538,1.01692 -1.13242,0.9292 -2.85154,-0.50336 -4.35073,-7.24483 -4.35073,-7.24483 0,0 -0.31975,0.73029 -0.73028,0.55756 -2.08184,-0.87583 -2.68823,-3.64792 -2.68823,-3.64792 z"
       id="path7284-6-6-9" /><path
       inkscape:connector-curvature="0"
       style="display:inline;opacity:1;fill:none;stroke:#008080;stroke-width:1.2;stroke-linecap:butt;stroke-linejoin:miter;stroke-miterlimit:4.6;stroke-dasharray:none;stroke-opacity:1"
       d="m 80.560206,74.575749 c 0,0 10.41117,-0.15874 10.11383,3.163501 -0.10885,1.21319 -1.62856,0.532088 -1.62856,0.532088 0,0 9.38525,-3.942543 10.84354,-0.613228 0.207494,0.47376 -0.61285,1.42533 -0.61285,1.42533 0,0 9.087954,-3.003172 13.795124,-3.018972 0.65923,-0.001 1.93482,0.409702 1.93482,0.409702 0,0 -3.91873,2.35359 -3.54958,4.13125 0.2313,1.11511 3.07434,1.49072 3.07434,1.49072 0,0 -1.53948,1.91868 -2.65096,2.23775 -4.09368,1.17517 -12.648574,-1.80771 -12.648574,-1.80771 0,0 0.3738,1.58479 -0.16554,1.95545 -3.09203,2.12613 -10.81361,-3.12968 -10.81361,-3.12968 0,0 0.39383,1.0125 -0.14589,1.22 -2.73581,1.05203 -7.03124,-2.78517 -7.03124,-2.78517 z"
       id="path7284-6-1" /><path
       inkscape:connector-curvature="0"
       style="display:inline;opacity:1;fill:none;stroke:#008080;stroke-width:1.2;stroke-linecap:butt;stroke-linejoin:miter;stroke-miterlimit:4.6;stroke-dasharray:none;stroke-opacity:1"
       d="m 52.885104,80.7481 c 0,0 -8.795766,3.03983 -7.714375,5.87686 0.394916,1.03605 1.558201,0.0639 1.558201,0.0639 0,0 -9.196339,-1.13492 -9.65125,2.14212 -0.06463,0.46628 0.889062,1.09728 0.889062,1.09728 0,0 -8.703753,-0.38544 -12.831504,0.76376 -0.578094,0.16101 -1.5938,0.83706 -1.5938,0.83706 0,0 4.014625,1.09364 4.130479,2.74216 0.07272,1.03415 -2.325014,2.0657 -2.325014,2.0657 0,0 1.822794,1.30046 2.875378,1.30537 3.876756,0.0189 10.634419,-4.70906 10.634419,-4.70906 0,0 0.06421,1.48074 0.627998,1.67229 3.234176,1.09863 8.700171,-5.4138 8.700171,-5.4138 0,0 -0.09479,0.98434 0.429225,1.03279 2.656751,0.24567 5.107276,-4.78378 5.107276,-4.78378 z"
       id="path7284-6-19" /><path
       inkscape:connector-curvature="0"
       style="display:inline;opacity:1;fill:none;stroke:#008080;stroke-width:1.2;stroke-linecap:butt;stroke-linejoin:miter;stroke-miterlimit:4.6;stroke-dasharray:none;stroke-opacity:1"
       d="m 53.814838,86.49767 c 0,0 -7.94888,5.09937 -6.255825,7.27264 0.618262,0.79359 1.4236,-0.31862 1.4236,-0.31862 0,0 -8.593428,1.23058 -8.177011,4.14921 0.0593,0.41525 1.080072,0.72771 1.080072,0.72771 0,0 -7.95927,1.75513 -11.397691,3.72948 -0.481531,0.27666 -1.228324,1.09954 -1.228324,1.09954 0,0 3.902438,-0.0264 4.423268,1.36128 0.326816,0.86921 -1.578667,2.32815 -1.578667,2.32815 0,0 1.974833,0.67819 2.926855,0.43014 3.506381,-0.91343 8.417064,-6.58552 8.417064,-6.58552 0,0 0.431834,1.2542 0.989432,1.2833 3.198754,0.16706 6.492011,-6.72627 6.492011,-6.72627 0,0 0.162822,0.86664 0.648435,0.78263 2.461821,-0.42599 3.212832,-4.74679 3.212832,-4.74679 z"
       id="path7284-6-6-0" /><path
       inkscape:connector-curvature="0"
       style="display:inline;opacity:1;fill:none;stroke:#008080;stroke-width:1.2;stroke-linecap:butt;stroke-linejoin:miter;stroke-miterlimit:4.6;stroke-dasharray:none;stroke-opacity:1"
       d="m 55.05608,91.92015 c 0,0 -6.424279,6.09359 -4.491088,7.6636 0.705982,0.57332 1.189172,-0.57014 1.189172,-0.57014 0,0 -7.319169,2.83124 -6.358931,5.31738 0.13663,0.35376 1.099336,0.42141 1.099336,0.42141 0,0 -6.653945,3.16434 -9.281185,5.60262 -0.3679,0.34167 -0.858361,1.21826 -0.858361,1.21826 0,0 3.432434,-0.81498 4.172969,0.29972 0.46459,0.69917 -0.917156,2.37173 -0.917156,2.37173 0,0 1.877401,0.19578 2.665531,-0.21619 2.902817,-1.5176 6.075016,-7.51227 6.075016,-7.51227 0,0 0.635388,1.01692 1.132445,0.9292 2.851536,-0.50336 4.350739,-7.24483 4.350739,-7.24483 0,0 0.319597,0.73032 0.730265,0.55756 2.081847,-0.87583 2.688219,-3.64792 2.688219,-3.64792 z"
       id="path7284-6-6-9-8" /><path
       inkscape:connector-curvature="0"
       style="display:inline;opacity:1;fill:none;stroke:#008080;stroke-width:1.2;stroke-linecap:butt;stroke-linejoin:miter;stroke-miterlimit:4.6;stroke-dasharray:none;stroke-opacity:1"
       d="m 53.261704,74.633158 c 0,0 -10.411181,-0.158738 -10.113846,3.163502 0.108624,1.2132 1.628538,0.532088 1.628538,0.532088 0,0 -9.385228,-3.942542 -10.843514,-0.613188 -0.207382,0.473718 0.612824,1.42529 0.612824,1.42529 0,0 -9.087912,-3.003132 -13.795071,-3.018972 -0.659263,-10e-4 -1.934839,0.409742 -1.934839,0.409742 0,0 3.918701,2.35359 3.549574,4.13121 -0.231496,1.11511 -3.074363,1.49072 -3.074363,1.49072 0,0 1.539512,1.91868 2.650988,2.23775 4.093674,1.1752 12.648563,-1.80771 12.648563,-1.80771 0,0 -0.373682,1.58483 0.165316,1.95545 3.092005,2.12614 10.813565,-3.12968 10.813565,-3.12968 0,0 -0.393785,1.0125 0.145814,1.22004 2.735845,1.05199 7.031237,-2.78518 7.031237,-2.78518 z"
       id="path7284-6-1-9" /><g
       aria-label="Cottbus"
       id="text6538"
       style="font-size:11.1701px;line-height:0;letter-spacing:0px;word-spacing:0px;display:inline;opacity:1;fill:#ffffff;stroke-width:0.279252"
       transform="translate(0,2.632134)"><path
         d="m 49.945703,134.01757 q -0.845028,0 -1.562792,-0.24943 -0.712674,-0.24944 -1.226817,-0.74322 -0.514143,-0.49378 -0.799213,-1.23191 -0.279979,-0.73812 -0.279979,-1.70532 0,-0.90103 0.269798,-1.63406 0.269798,-0.73304 0.783941,-1.25736 0.493782,-0.50396 1.221727,-0.77885 0.733036,-0.27489 1.598426,-0.27489 0.478509,0 0.860299,0.056 0.38688,0.0509 0.712673,0.13745 0.341066,0.0967 0.615954,0.21889 0.279979,0.11708 0.488691,0.21889 v 1.83768 h -0.223983 q -0.142535,-0.12217 -0.361428,-0.29016 -0.213802,-0.16798 -0.48869,-0.33088 -0.279979,-0.1629 -0.605773,-0.27489 -0.325794,-0.11199 -0.697402,-0.11199 -0.412333,0 -0.783942,0.13235 -0.371608,0.12727 -0.687221,0.42761 -0.300341,0.29016 -0.48869,0.76867 -0.183259,0.47851 -0.183259,1.16064 0,0.71267 0.19853,1.19118 0.203621,0.47851 0.509053,0.7534 0.310522,0.27998 0.692312,0.40215 0.381789,0.11708 0.753398,0.11708 0.356337,0 0.702492,-0.1069 0.351247,-0.1069 0.646497,-0.29016 0.249436,-0.14762 0.463238,-0.31561 0.213803,-0.16799 0.351247,-0.29016 h 0.203621 v 1.81223 q -0.28507,0.12726 -0.544687,0.23925 -0.259616,0.11199 -0.544686,0.19344 -0.371608,0.1069 -0.697402,0.1629 -0.325794,0.056 -0.895933,0.056 z"
         style="font-weight:bold;font-size:10.4254px;font-family:'Tlwg Typist';-inkscape-font-specification:'Tlwg Typist Bold';opacity:1"
         id="path2746" /><path
         d="m 59.816235,131.01416 q 0,1.41008 -0.824665,2.22456 -0.819575,0.8094 -2.306009,0.8094 -1.486434,0 -2.311099,-0.8094 -0.819575,-0.81448 -0.819575,-2.22456 0,-1.42025 0.824665,-2.22965 0.829756,-0.80939 2.306009,-0.80939 1.496615,0 2.311099,0.81448 0.819575,0.81449 0.819575,2.22456 z m -2.255103,1.38972 q 0.178168,-0.2189 0.264707,-0.52433 0.09163,-0.31052 0.09163,-0.85521 0,-0.50396 -0.09163,-0.84502 -0.09163,-0.34107 -0.254526,-0.54469 -0.162897,-0.20871 -0.391971,-0.29525 -0.229074,-0.0865 -0.493781,-0.0865 -0.264708,0 -0.473419,0.0713 -0.203621,0.0713 -0.391971,0.28507 -0.167987,0.19853 -0.269798,0.54468 -0.09672,0.34616 -0.09672,0.87048 0,0.46833 0.08654,0.81449 0.08654,0.34106 0.254527,0.54978 0.162896,0.19853 0.38688,0.29016 0.229073,0.0916 0.519233,0.0916 0.249436,0 0.47342,-0.0814 0.229073,-0.0865 0.38688,-0.28507 z"
         style="font-weight:bold;font-size:10.4254px;font-family:'Tlwg Typist';-inkscape-font-specification:'Tlwg Typist Bold';opacity:1"
         id="path2748" /><path
         d="m 64.794771,133.81904 q -0.295251,0.0764 -0.626135,0.11709 -0.330884,0.0458 -0.809394,0.0458 -1.069011,0 -1.593335,-0.43269 -0.519234,-0.4327 -0.519234,-1.48135 v -2.67252 h -0.753398 v -1.24209 h 0.753398 v -1.63406 h 1.83259 v 1.63406 h 1.715508 v 1.24209 h -1.715508 v 2.02603 q 0,0.30034 0.0051,0.52432 0.0051,0.22398 0.08145,0.40215 0.07127,0.17817 0.249436,0.28507 0.183259,0.10181 0.529415,0.10181 0.142534,0 0.371608,-0.0611 0.234164,-0.0611 0.325794,-0.112 h 0.152716 z"
         style="font-weight:bold;font-size:10.4254px;font-family:'Tlwg Typist';-inkscape-font-specification:'Tlwg Typist Bold';opacity:1"
         id="path2750" /><path
         d="m 69.539141,133.81904 q -0.29525,0.0764 -0.626135,0.11709 -0.330884,0.0458 -0.809393,0.0458 -1.069011,0 -1.593335,-0.43269 -0.519234,-0.4327 -0.519234,-1.48135 v -2.67252 h -0.753398 v -1.24209 h 0.753398 v -1.63406 h 1.83259 v 1.63406 h 1.715507 v 1.24209 h -1.715507 v 2.02603 q 0,0.30034 0.0051,0.52432 0.0051,0.22398 0.08145,0.40215 0.07127,0.17817 0.249435,0.28507 0.183259,0.10181 0.529415,0.10181 0.142535,0 0.371609,-0.0611 0.234164,-0.0611 0.325793,-0.112 h 0.152716 z"
         style="font-weight:bold;font-size:10.4254px;font-family:'Tlwg Typist';-inkscape-font-specification:'Tlwg Typist Bold';opacity:1"
         id="path2752" /><path
         d="m 76.594614,130.93272 q 0,1.34898 -0.748308,2.1991 -0.743217,0.85012 -1.858042,0.85012 -0.47851,0 -0.839937,-0.10181 -0.361427,-0.10181 -0.687221,-0.29525 l -0.07636,0.28507 h -1.756232 v -7.92086 h 1.83259 v 2.79979 q 0.422514,-0.33598 0.860299,-0.54469 0.442876,-0.20871 1.018105,-0.20871 1.084283,0 1.669693,0.78394 0.585411,0.77885 0.585411,2.1533 z m -1.888586,0.0356 q 0,-0.76358 -0.259617,-1.17591 -0.259616,-0.41234 -0.926476,-0.41234 -0.259616,0 -0.534505,0.0814 -0.274888,0.0764 -0.524324,0.22399 v 2.87105 q 0.19853,0.0713 0.376699,0.0967 0.178168,0.0255 0.427604,0.0255 0.727946,0 1.084282,-0.42761 0.356337,-0.4276 0.356337,-1.28281 z"
         style="font-weight:bold;font-size:10.4254px;font-family:'Tlwg Typist';-inkscape-font-specification:'Tlwg Typist Bold';opacity:1"
         id="path2754" /><path
         d="m 83.614451,133.86995 h -1.83259 v -0.63123 q -0.509053,0.38688 -0.931567,0.59051 -0.422513,0.19853 -1.007924,0.19853 -0.946838,0 -1.460981,-0.54469 -0.509053,-0.54469 -0.509053,-1.60861 v -3.72117 h 1.842771 v 2.83542 q 0,0.4327 0.02545,0.72286 0.03054,0.28507 0.132354,0.47341 0.09672,0.18835 0.29016,0.27489 0.198531,0.0865 0.549777,0.0865 0.234164,0 0.519234,-0.0865 0.285069,-0.0865 0.549777,-0.25452 v -4.05206 h 1.83259 z"
         style="font-weight:bold;font-size:10.4254px;font-family:'Tlwg Typist';-inkscape-font-specification:'Tlwg Typist Bold';opacity:1"
         id="path2756" /><path
         d="m 90.318676,132.05772 q 0,0.88575 -0.794122,1.43044 -0.794122,0.5396 -2.173655,0.5396 -0.763579,0 -1.384624,-0.14254 -0.621044,-0.14253 -0.997743,-0.31561 v -1.5068 h 0.167987 q 0.137445,0.0967 0.315613,0.2138 0.183259,0.112 0.514143,0.24435 0.28507,0.11708 0.646497,0.20362 0.361428,0.0814 0.77376,0.0814 0.539596,0 0.799213,-0.11708 0.259617,-0.12218 0.259617,-0.35634 0,-0.20871 -0.152716,-0.30034 -0.152715,-0.0967 -0.58032,-0.18326 -0.203621,-0.0458 -0.554867,-0.0967 -0.346156,-0.056 -0.631226,-0.13235 -0.77885,-0.20362 -1.155549,-0.63123 -0.376699,-0.43269 -0.376699,-1.0741 0,-0.82467 0.77885,-1.36935 0.783942,-0.54978 2.138022,-0.54978 0.641406,0 1.226817,0.13235 0.590501,0.12727 0.921385,0.27489 v 1.44571 h -0.157806 q -0.407242,-0.27998 -0.931567,-0.45305 -0.519233,-0.17817 -1.053739,-0.17817 -0.442876,0 -0.748307,0.12217 -0.300341,0.12217 -0.300341,0.34616 0,0.20362 0.137444,0.31052 0.137444,0.1069 0.646497,0.2138 0.279979,0.056 0.600682,0.11199 0.325794,0.0509 0.651588,0.13236 0.722854,0.18835 1.06901,0.59559 0.346156,0.40215 0.346156,1.00792 z"
         style="font-weight:bold;font-size:10.4254px;font-family:'Tlwg Typist';-inkscape-font-specification:'Tlwg Typist Bold';opacity:1"
         id="path2758" /></g><path
       inkscape:connector-curvature="0"
       id="path875"
       d="M 0,38.576467 66.973036,0 133.94608,38.576467 V 115.73042 L 66.973036,154.30689 0,115.73042 Z"
       style="opacity:0;fill:#ffffff;fill-opacity:1;stroke:#000000;stroke-width:1px;stroke-linecap:butt;stroke-linejoin:miter;stroke-opacity:1" /><g
       id="g8882"
       transform="matrix(-1,0,0,1,133.92866,-0.003688)"><path
         style="display:inline;opacity:1;fill:none;stroke:#008080;stroke-width:1;stroke-linecap:butt;stroke-linejoin:miter;stroke-miterlimit:4.6;stroke-dasharray:none;stroke-opacity:1"
         d="m 21.998979,54.806419 c -3.07139,-0.0428 -4.5629,5.37184 -6.96485,5.80664 0,0 1.47452,1.70456 2.39649,2.33008 4.04257,2.74257 13.37695,5.98437 13.37695,5.98437 0,0 -1.27524,1.50269 -0.89844,2.19922 2.16164,3.995599 13.38086,2.58594 13.38086,2.58594 0,0 -2.07092,0.42426 -1.60351,0.945309 1.09814,1.22415 3.269,0.65884 5.7207,0.28516 2.83854,-0.432569 5.91406,-0.794929 5.91406,-0.794929 l 3.27735,-5.92382 c 0,0 -10.04489,-3.56557 -12.98438,-0.79688 -0.58097,0.5472 0.3125,2.37305 0.3125,2.37305 0,0 -7.35178,-8.50031 -11.14648,-6.48242 -0.55278,0.29404 -0.12305,1.875 -0.12305,1.875 0,0 -3.98296,-6.60643 -8.24805,-9.35743 -0.90761,-0.71938 -1.70137,-1.01942 -2.41015,-1.02929 z"
         id="path8876" /><path
         style="display:inline;opacity:1;fill:#ffffff;stroke:#008080;stroke-width:1.2;stroke-linecap:butt;stroke-linejoin:miter;stroke-miterlimit:4.6;stroke-dasharray:none;stroke-opacity:1"
         d="m 24.54234,52.131313 c 2.921541,5.444687 20.513959,1.851426 28.968439,-7.528024 2.64716,-3.03027 -6.941382,2.716494 -10.629832,2.699664 -10.08471,0.62856 -13.900706,0.974496 -17.529758,2.461886 -0.377636,0.154777 -1.489813,1.097406 -0.808849,2.366474 z"
         id="Greifer-rechts"
         sodipodi:nodetypes="sccss"
         inkscape:transform-center-x="-12.895138"
         inkscape:transform-center-y="-2.516411"
         class="Krebskoerper Greifer" /><path
         style="display:inline;opacity:1;fill:#ffffff;stroke:#008080;stroke-width:1.2;stroke-linecap:butt;stroke-linejoin:miter;stroke-miterlimit:4.6;stroke-dasharray:none;stroke-opacity:1"
         d="m 29.99104,43.769611 c 6.00265,-4.67013 29.118409,-5.143652 21.644739,-6.553042 -6.90956,-1.30299 -12.61411,-2.7104 -17.36719,-2.54297 h -8e-5 c -12.81848,0.45215 -22.76626,7.10374 -24.2793,19.60547 -0.28576,2.36126 1.92189,5.01089 4.14649,5.30078 2.63842,0.34349 4.10074,-3.57618 6.36133,-4.81836 1.63726,-0.89961 3.527873,1.454212 4.929893,0.468103 1.40202,-0.986108 -1.897072,-3.165756 -0.07573,-5.464753 1.821339,-2.298997 2.900031,-4.641628 4.639851,-5.995228 z"
         id="path8880"
         class="Krebskoerper" /></g></g></g></svg>
